<svg xmlns="http://www.w3.org/2000/svg" xmlns:xlink="http://www.w3.org/1999/xlink" width="1920" height="196" viewBox="0 0 1920 196"><defs><clipPath id="a"><rect width="1920" height="196" fill="none"/></clipPath></defs><g opacity="0.5" clip-path="url(#a)"><g transform="translate(-1016 -272)"><circle cx="8" cy="8" r="8" transform="translate(1016 272)" fill="#8671bf"/><circle cx="8" cy="8" r="8" transform="translate(1052 272)" fill="#8671bf"/><circle cx="8" cy="8" r="8" transform="translate(1088 272)" fill="#8671bf"/><circle cx="8" cy="8" r="8" transform="translate(1124 272)" fill="#8671bf"/><circle cx="8" cy="8" r="8" transform="translate(1160 272)" fill="#8671bf"/><circle cx="8" cy="8" r="8" transform="translate(1196 272)" fill="#8671bf"/><circle cx="8" cy="8" r="8" transform="translate(1232 272)" fill="#8671bf"/><circle cx="8" cy="8" r="8" transform="translate(1268 272)" fill="#8671bf"/><circle cx="8" cy="8" r="8" transform="translate(1304 272)" fill="#8671bf"/><circle cx="8" cy="8" r="8" transform="translate(1340 272)" fill="#8671bf"/><circle cx="8" cy="8" r="8" transform="translate(1016 308)" fill="#8671bf"/><circle cx="8" cy="8" r="8" transform="translate(1052 308)" fill="#8671bf"/><circle cx="8" cy="8" r="8" transform="translate(1088 308)" fill="#8671bf"/><circle cx="8" cy="8" r="8" transform="translate(1124 308)" fill="#8671bf"/><circle cx="8" cy="8" r="8" transform="translate(1160 308)" fill="#8671bf"/><circle cx="8" cy="8" r="8" transform="translate(1196 308)" fill="#8671bf"/><circle cx="8" cy="8" r="8" transform="translate(1232 308)" fill="#8671bf"/><circle cx="8" cy="8" r="8" transform="translate(1268 308)" fill="#8671bf"/><circle cx="8" cy="8" r="8" transform="translate(1304 308)" fill="#8671bf"/><circle cx="8" cy="8" r="8" transform="translate(1340 308)" fill="#8671bf"/><circle cx="8" cy="8" r="8" transform="translate(1016 344)" fill="#8671bf"/><circle cx="8" cy="8" r="8" transform="translate(1052 344)" fill="#8671bf"/><circle cx="8" cy="8" r="8" transform="translate(1088 344)" fill="#8671bf"/><circle cx="8" cy="8" r="8" transform="translate(1124 344)" fill="#8671bf"/><circle cx="8" cy="8" r="8" transform="translate(1160 344)" fill="#8671bf"/><circle cx="8" cy="8" r="8" transform="translate(1196 344)" fill="#8671bf"/><circle cx="8" cy="8" r="8" transform="translate(1232 344)" fill="#8671bf"/><circle cx="8" cy="8" r="8" transform="translate(1268 344)" fill="#8671bf"/><circle cx="8" cy="8" r="8" transform="translate(1304 344)" fill="#8671bf"/><circle cx="8" cy="8" r="8" transform="translate(1340 344)" fill="#8671bf"/><circle cx="8" cy="8" r="8" transform="translate(1016 380)" fill="#8671bf"/><circle cx="8" cy="8" r="8" transform="translate(1052 380)" fill="#8671bf"/><circle cx="8" cy="8" r="8" transform="translate(1088 380)" fill="#8671bf"/><circle cx="8" cy="8" r="8" transform="translate(1124 380)" fill="#8671bf"/><circle cx="8" cy="8" r="8" transform="translate(1160 380)" fill="#8671bf"/><circle cx="8" cy="8" r="8" transform="translate(1196 380)" fill="#8671bf"/><circle cx="8" cy="8" r="8" transform="translate(1232 380)" fill="#8671bf"/><circle cx="8" cy="8" r="8" transform="translate(1268 380)" fill="#8671bf"/><circle cx="8" cy="8" r="8" transform="translate(1304 380)" fill="#8671bf"/><circle cx="8" cy="8" r="8" transform="translate(1340 380)" fill="#8671bf"/><circle cx="8" cy="8" r="8" transform="translate(1016 416)" fill="#8671bf"/><circle cx="8" cy="8" r="8" transform="translate(1052 416)" fill="#8671bf"/><circle cx="8" cy="8" r="8" transform="translate(1088 416)" fill="#8671bf"/><circle cx="8" cy="8" r="8" transform="translate(1124 416)" fill="#8671bf"/><circle cx="8" cy="8" r="8" transform="translate(1160 416)" fill="#8671bf"/><circle cx="8" cy="8" r="8" transform="translate(1196 416)" fill="#8671bf"/><circle cx="8" cy="8" r="8" transform="translate(1232 416)" fill="#8671bf"/><circle cx="8" cy="8" r="8" transform="translate(1268 416)" fill="#8671bf"/><circle cx="8" cy="8" r="8" transform="translate(1304 416)" fill="#8671bf"/><circle cx="8" cy="8" r="8" transform="translate(1340 416)" fill="#8671bf"/><circle cx="8" cy="8" r="8" transform="translate(1016 452)" fill="#8671bf"/><circle cx="8" cy="8" r="8" transform="translate(1052 452)" fill="#8671bf"/><circle cx="8" cy="8" r="8" transform="translate(1088 452)" fill="#8671bf"/><circle cx="8" cy="8" r="8" transform="translate(1124 452)" fill="#8671bf"/><circle cx="8" cy="8" r="8" transform="translate(1160 452)" fill="#8671bf"/><circle cx="8" cy="8" r="8" transform="translate(1196 452)" fill="#8671bf"/><circle cx="8" cy="8" r="8" transform="translate(1232 452)" fill="#8671bf"/><circle cx="8" cy="8" r="8" transform="translate(1268 452)" fill="#8671bf"/><circle cx="8" cy="8" r="8" transform="translate(1304 452)" fill="#8671bf"/><circle cx="8" cy="8" r="8" transform="translate(1340 452)" fill="#8671bf"/></g><g transform="translate(-656 -272)"><circle cx="8" cy="8" r="8" transform="translate(1016 272)" fill="#8671bf"/><circle cx="8" cy="8" r="8" transform="translate(1052 272)" fill="#8671bf"/><circle cx="8" cy="8" r="8" transform="translate(1088 272)" fill="#8671bf"/><circle cx="8" cy="8" r="8" transform="translate(1124 272)" fill="#8671bf"/><circle cx="8" cy="8" r="8" transform="translate(1160 272)" fill="#8671bf"/><circle cx="8" cy="8" r="8" transform="translate(1196 272)" fill="#8671bf"/><circle cx="8" cy="8" r="8" transform="translate(1232 272)" fill="#8671bf"/><circle cx="8" cy="8" r="8" transform="translate(1268 272)" fill="#8671bf"/><circle cx="8" cy="8" r="8" transform="translate(1304 272)" fill="#8671bf"/><circle cx="8" cy="8" r="8" transform="translate(1340 272)" fill="#8671bf"/><circle cx="8" cy="8" r="8" transform="translate(1016 308)" fill="#8671bf"/><circle cx="8" cy="8" r="8" transform="translate(1052 308)" fill="#8671bf"/><circle cx="8" cy="8" r="8" transform="translate(1088 308)" fill="#8671bf"/><circle cx="8" cy="8" r="8" transform="translate(1124 308)" fill="#8671bf"/><circle cx="8" cy="8" r="8" transform="translate(1160 308)" fill="#8671bf"/><circle cx="8" cy="8" r="8" transform="translate(1196 308)" fill="#8671bf"/><circle cx="8" cy="8" r="8" transform="translate(1232 308)" fill="#8671bf"/><circle cx="8" cy="8" r="8" transform="translate(1268 308)" fill="#8671bf"/><circle cx="8" cy="8" r="8" transform="translate(1304 308)" fill="#8671bf"/><circle cx="8" cy="8" r="8" transform="translate(1340 308)" fill="#8671bf"/><circle cx="8" cy="8" r="8" transform="translate(1016 344)" fill="#8671bf"/><circle cx="8" cy="8" r="8" transform="translate(1052 344)" fill="#8671bf"/><circle cx="8" cy="8" r="8" transform="translate(1088 344)" fill="#8671bf"/><circle cx="8" cy="8" r="8" transform="translate(1124 344)" fill="#8671bf"/><circle cx="8" cy="8" r="8" transform="translate(1160 344)" fill="#8671bf"/><circle cx="8" cy="8" r="8" transform="translate(1196 344)" fill="#8671bf"/><circle cx="8" cy="8" r="8" transform="translate(1232 344)" fill="#8671bf"/><circle cx="8" cy="8" r="8" transform="translate(1268 344)" fill="#8671bf"/><circle cx="8" cy="8" r="8" transform="translate(1304 344)" fill="#8671bf"/><circle cx="8" cy="8" r="8" transform="translate(1340 344)" fill="#8671bf"/><circle cx="8" cy="8" r="8" transform="translate(1016 380)" fill="#8671bf"/><circle cx="8" cy="8" r="8" transform="translate(1052 380)" fill="#8671bf"/><circle cx="8" cy="8" r="8" transform="translate(1088 380)" fill="#8671bf"/><circle cx="8" cy="8" r="8" transform="translate(1124 380)" fill="#8671bf"/><circle cx="8" cy="8" r="8" transform="translate(1160 380)" fill="#8671bf"/><circle cx="8" cy="8" r="8" transform="translate(1196 380)" fill="#8671bf"/><circle cx="8" cy="8" r="8" transform="translate(1232 380)" fill="#8671bf"/><circle cx="8" cy="8" r="8" transform="translate(1268 380)" fill="#8671bf"/><circle cx="8" cy="8" r="8" transform="translate(1304 380)" fill="#8671bf"/><circle cx="8" cy="8" r="8" transform="translate(1340 380)" fill="#8671bf"/><circle cx="8" cy="8" r="8" transform="translate(1016 416)" fill="#8671bf"/><circle cx="8" cy="8" r="8" transform="translate(1052 416)" fill="#8671bf"/><circle cx="8" cy="8" r="8" transform="translate(1088 416)" fill="#8671bf"/><circle cx="8" cy="8" r="8" transform="translate(1124 416)" fill="#8671bf"/><circle cx="8" cy="8" r="8" transform="translate(1160 416)" fill="#8671bf"/><circle cx="8" cy="8" r="8" transform="translate(1196 416)" fill="#8671bf"/><circle cx="8" cy="8" r="8" transform="translate(1232 416)" fill="#8671bf"/><circle cx="8" cy="8" r="8" transform="translate(1268 416)" fill="#8671bf"/><circle cx="8" cy="8" r="8" transform="translate(1304 416)" fill="#8671bf"/><circle cx="8" cy="8" r="8" transform="translate(1340 416)" fill="#8671bf"/><circle cx="8" cy="8" r="8" transform="translate(1016 452)" fill="#8671bf"/><circle cx="8" cy="8" r="8" transform="translate(1052 452)" fill="#8671bf"/><circle cx="8" cy="8" r="8" transform="translate(1088 452)" fill="#8671bf"/><circle cx="8" cy="8" r="8" transform="translate(1124 452)" fill="#8671bf"/><circle cx="8" cy="8" r="8" transform="translate(1160 452)" fill="#8671bf"/><circle cx="8" cy="8" r="8" transform="translate(1196 452)" fill="#8671bf"/><circle cx="8" cy="8" r="8" transform="translate(1232 452)" fill="#8671bf"/><circle cx="8" cy="8" r="8" transform="translate(1268 452)" fill="#8671bf"/><circle cx="8" cy="8" r="8" transform="translate(1304 452)" fill="#8671bf"/><circle cx="8" cy="8" r="8" transform="translate(1340 452)" fill="#8671bf"/></g><g transform="translate(-296 -272)"><circle cx="8" cy="8" r="8" transform="translate(1016 272)" fill="#8671bf"/><circle cx="8" cy="8" r="8" transform="translate(1052 272)" fill="#8671bf"/><circle cx="8" cy="8" r="8" transform="translate(1088 272)" fill="#8671bf"/><circle cx="8" cy="8" r="8" transform="translate(1124 272)" fill="#8671bf"/><circle cx="8" cy="8" r="8" transform="translate(1160 272)" fill="#8671bf"/><circle cx="8" cy="8" r="8" transform="translate(1196 272)" fill="#8671bf"/><circle cx="8" cy="8" r="8" transform="translate(1232 272)" fill="#8671bf"/><circle cx="8" cy="8" r="8" transform="translate(1268 272)" fill="#8671bf"/><circle cx="8" cy="8" r="8" transform="translate(1304 272)" fill="#8671bf"/><circle cx="8" cy="8" r="8" transform="translate(1340 272)" fill="#8671bf"/><circle cx="8" cy="8" r="8" transform="translate(1016 308)" fill="#8671bf"/><circle cx="8" cy="8" r="8" transform="translate(1052 308)" fill="#8671bf"/><circle cx="8" cy="8" r="8" transform="translate(1088 308)" fill="#8671bf"/><circle cx="8" cy="8" r="8" transform="translate(1124 308)" fill="#8671bf"/><circle cx="8" cy="8" r="8" transform="translate(1160 308)" fill="#8671bf"/><circle cx="8" cy="8" r="8" transform="translate(1196 308)" fill="#8671bf"/><circle cx="8" cy="8" r="8" transform="translate(1232 308)" fill="#8671bf"/><circle cx="8" cy="8" r="8" transform="translate(1268 308)" fill="#8671bf"/><circle cx="8" cy="8" r="8" transform="translate(1304 308)" fill="#8671bf"/><circle cx="8" cy="8" r="8" transform="translate(1340 308)" fill="#8671bf"/><circle cx="8" cy="8" r="8" transform="translate(1016 344)" fill="#8671bf"/><circle cx="8" cy="8" r="8" transform="translate(1052 344)" fill="#8671bf"/><circle cx="8" cy="8" r="8" transform="translate(1088 344)" fill="#8671bf"/><circle cx="8" cy="8" r="8" transform="translate(1124 344)" fill="#8671bf"/><circle cx="8" cy="8" r="8" transform="translate(1160 344)" fill="#8671bf"/><circle cx="8" cy="8" r="8" transform="translate(1196 344)" fill="#8671bf"/><circle cx="8" cy="8" r="8" transform="translate(1232 344)" fill="#8671bf"/><circle cx="8" cy="8" r="8" transform="translate(1268 344)" fill="#8671bf"/><circle cx="8" cy="8" r="8" transform="translate(1304 344)" fill="#8671bf"/><circle cx="8" cy="8" r="8" transform="translate(1340 344)" fill="#8671bf"/><circle cx="8" cy="8" r="8" transform="translate(1016 380)" fill="#8671bf"/><circle cx="8" cy="8" r="8" transform="translate(1052 380)" fill="#8671bf"/><circle cx="8" cy="8" r="8" transform="translate(1088 380)" fill="#8671bf"/><circle cx="8" cy="8" r="8" transform="translate(1124 380)" fill="#8671bf"/><circle cx="8" cy="8" r="8" transform="translate(1160 380)" fill="#8671bf"/><circle cx="8" cy="8" r="8" transform="translate(1196 380)" fill="#8671bf"/><circle cx="8" cy="8" r="8" transform="translate(1232 380)" fill="#8671bf"/><circle cx="8" cy="8" r="8" transform="translate(1268 380)" fill="#8671bf"/><circle cx="8" cy="8" r="8" transform="translate(1304 380)" fill="#8671bf"/><circle cx="8" cy="8" r="8" transform="translate(1340 380)" fill="#8671bf"/><circle cx="8" cy="8" r="8" transform="translate(1016 416)" fill="#8671bf"/><circle cx="8" cy="8" r="8" transform="translate(1052 416)" fill="#8671bf"/><circle cx="8" cy="8" r="8" transform="translate(1088 416)" fill="#8671bf"/><circle cx="8" cy="8" r="8" transform="translate(1124 416)" fill="#8671bf"/><circle cx="8" cy="8" r="8" transform="translate(1160 416)" fill="#8671bf"/><circle cx="8" cy="8" r="8" transform="translate(1196 416)" fill="#8671bf"/><circle cx="8" cy="8" r="8" transform="translate(1232 416)" fill="#8671bf"/><circle cx="8" cy="8" r="8" transform="translate(1268 416)" fill="#8671bf"/><circle cx="8" cy="8" r="8" transform="translate(1304 416)" fill="#8671bf"/><circle cx="8" cy="8" r="8" transform="translate(1340 416)" fill="#8671bf"/><circle cx="8" cy="8" r="8" transform="translate(1016 452)" fill="#8671bf"/><circle cx="8" cy="8" r="8" transform="translate(1052 452)" fill="#8671bf"/><circle cx="8" cy="8" r="8" transform="translate(1088 452)" fill="#8671bf"/><circle cx="8" cy="8" r="8" transform="translate(1124 452)" fill="#8671bf"/><circle cx="8" cy="8" r="8" transform="translate(1160 452)" fill="#8671bf"/><circle cx="8" cy="8" r="8" transform="translate(1196 452)" fill="#8671bf"/><circle cx="8" cy="8" r="8" transform="translate(1232 452)" fill="#8671bf"/><circle cx="8" cy="8" r="8" transform="translate(1268 452)" fill="#8671bf"/><circle cx="8" cy="8" r="8" transform="translate(1304 452)" fill="#8671bf"/><circle cx="8" cy="8" r="8" transform="translate(1340 452)" fill="#8671bf"/></g><g transform="translate(64 -272)"><circle cx="8" cy="8" r="8" transform="translate(1016 272)" fill="#8671bf"/><circle cx="8" cy="8" r="8" transform="translate(1052 272)" fill="#8671bf"/><circle cx="8" cy="8" r="8" transform="translate(1088 272)" fill="#8671bf"/><circle cx="8" cy="8" r="8" transform="translate(1124 272)" fill="#8671bf"/><circle cx="8" cy="8" r="8" transform="translate(1160 272)" fill="#8671bf"/><circle cx="8" cy="8" r="8" transform="translate(1196 272)" fill="#8671bf"/><circle cx="8" cy="8" r="8" transform="translate(1232 272)" fill="#8671bf"/><circle cx="8" cy="8" r="8" transform="translate(1268 272)" fill="#8671bf"/><circle cx="8" cy="8" r="8" transform="translate(1304 272)" fill="#8671bf"/><circle cx="8" cy="8" r="8" transform="translate(1340 272)" fill="#8671bf"/><circle cx="8" cy="8" r="8" transform="translate(1016 308)" fill="#8671bf"/><circle cx="8" cy="8" r="8" transform="translate(1052 308)" fill="#8671bf"/><circle cx="8" cy="8" r="8" transform="translate(1088 308)" fill="#8671bf"/><circle cx="8" cy="8" r="8" transform="translate(1124 308)" fill="#8671bf"/><circle cx="8" cy="8" r="8" transform="translate(1160 308)" fill="#8671bf"/><circle cx="8" cy="8" r="8" transform="translate(1196 308)" fill="#8671bf"/><circle cx="8" cy="8" r="8" transform="translate(1232 308)" fill="#8671bf"/><circle cx="8" cy="8" r="8" transform="translate(1268 308)" fill="#8671bf"/><circle cx="8" cy="8" r="8" transform="translate(1304 308)" fill="#8671bf"/><circle cx="8" cy="8" r="8" transform="translate(1340 308)" fill="#8671bf"/><circle cx="8" cy="8" r="8" transform="translate(1016 344)" fill="#8671bf"/><circle cx="8" cy="8" r="8" transform="translate(1052 344)" fill="#8671bf"/><circle cx="8" cy="8" r="8" transform="translate(1088 344)" fill="#8671bf"/><circle cx="8" cy="8" r="8" transform="translate(1124 344)" fill="#8671bf"/><circle cx="8" cy="8" r="8" transform="translate(1160 344)" fill="#8671bf"/><circle cx="8" cy="8" r="8" transform="translate(1196 344)" fill="#8671bf"/><circle cx="8" cy="8" r="8" transform="translate(1232 344)" fill="#8671bf"/><circle cx="8" cy="8" r="8" transform="translate(1268 344)" fill="#8671bf"/><circle cx="8" cy="8" r="8" transform="translate(1304 344)" fill="#8671bf"/><circle cx="8" cy="8" r="8" transform="translate(1340 344)" fill="#8671bf"/><circle cx="8" cy="8" r="8" transform="translate(1016 380)" fill="#8671bf"/><circle cx="8" cy="8" r="8" transform="translate(1052 380)" fill="#8671bf"/><circle cx="8" cy="8" r="8" transform="translate(1088 380)" fill="#8671bf"/><circle cx="8" cy="8" r="8" transform="translate(1124 380)" fill="#8671bf"/><circle cx="8" cy="8" r="8" transform="translate(1160 380)" fill="#8671bf"/><circle cx="8" cy="8" r="8" transform="translate(1196 380)" fill="#8671bf"/><circle cx="8" cy="8" r="8" transform="translate(1232 380)" fill="#8671bf"/><circle cx="8" cy="8" r="8" transform="translate(1268 380)" fill="#8671bf"/><circle cx="8" cy="8" r="8" transform="translate(1304 380)" fill="#8671bf"/><circle cx="8" cy="8" r="8" transform="translate(1340 380)" fill="#8671bf"/><circle cx="8" cy="8" r="8" transform="translate(1016 416)" fill="#8671bf"/><circle cx="8" cy="8" r="8" transform="translate(1052 416)" fill="#8671bf"/><circle cx="8" cy="8" r="8" transform="translate(1088 416)" fill="#8671bf"/><circle cx="8" cy="8" r="8" transform="translate(1124 416)" fill="#8671bf"/><circle cx="8" cy="8" r="8" transform="translate(1160 416)" fill="#8671bf"/><circle cx="8" cy="8" r="8" transform="translate(1196 416)" fill="#8671bf"/><circle cx="8" cy="8" r="8" transform="translate(1232 416)" fill="#8671bf"/><circle cx="8" cy="8" r="8" transform="translate(1268 416)" fill="#8671bf"/><circle cx="8" cy="8" r="8" transform="translate(1304 416)" fill="#8671bf"/><circle cx="8" cy="8" r="8" transform="translate(1340 416)" fill="#8671bf"/><circle cx="8" cy="8" r="8" transform="translate(1016 452)" fill="#8671bf"/><circle cx="8" cy="8" r="8" transform="translate(1052 452)" fill="#8671bf"/><circle cx="8" cy="8" r="8" transform="translate(1088 452)" fill="#8671bf"/><circle cx="8" cy="8" r="8" transform="translate(1124 452)" fill="#8671bf"/><circle cx="8" cy="8" r="8" transform="translate(1160 452)" fill="#8671bf"/><circle cx="8" cy="8" r="8" transform="translate(1196 452)" fill="#8671bf"/><circle cx="8" cy="8" r="8" transform="translate(1232 452)" fill="#8671bf"/><circle cx="8" cy="8" r="8" transform="translate(1268 452)" fill="#8671bf"/><circle cx="8" cy="8" r="8" transform="translate(1304 452)" fill="#8671bf"/><circle cx="8" cy="8" r="8" transform="translate(1340 452)" fill="#8671bf"/></g><g transform="translate(424 -272)"><circle cx="8" cy="8" r="8" transform="translate(1016 272)" fill="#8671bf"/><circle cx="8" cy="8" r="8" transform="translate(1052 272)" fill="#8671bf"/><circle cx="8" cy="8" r="8" transform="translate(1088 272)" fill="#8671bf"/><circle cx="8" cy="8" r="8" transform="translate(1124 272)" fill="#8671bf"/><circle cx="8" cy="8" r="8" transform="translate(1160 272)" fill="#8671bf"/><circle cx="8" cy="8" r="8" transform="translate(1196 272)" fill="#8671bf"/><circle cx="8" cy="8" r="8" transform="translate(1232 272)" fill="#8671bf"/><circle cx="8" cy="8" r="8" transform="translate(1268 272)" fill="#8671bf"/><circle cx="8" cy="8" r="8" transform="translate(1304 272)" fill="#8671bf"/><circle cx="8" cy="8" r="8" transform="translate(1340 272)" fill="#8671bf"/><circle cx="8" cy="8" r="8" transform="translate(1016 308)" fill="#8671bf"/><circle cx="8" cy="8" r="8" transform="translate(1052 308)" fill="#8671bf"/><circle cx="8" cy="8" r="8" transform="translate(1088 308)" fill="#8671bf"/><circle cx="8" cy="8" r="8" transform="translate(1124 308)" fill="#8671bf"/><circle cx="8" cy="8" r="8" transform="translate(1160 308)" fill="#8671bf"/><circle cx="8" cy="8" r="8" transform="translate(1196 308)" fill="#8671bf"/><circle cx="8" cy="8" r="8" transform="translate(1232 308)" fill="#8671bf"/><circle cx="8" cy="8" r="8" transform="translate(1268 308)" fill="#8671bf"/><circle cx="8" cy="8" r="8" transform="translate(1304 308)" fill="#8671bf"/><circle cx="8" cy="8" r="8" transform="translate(1340 308)" fill="#8671bf"/><circle cx="8" cy="8" r="8" transform="translate(1016 344)" fill="#8671bf"/><circle cx="8" cy="8" r="8" transform="translate(1052 344)" fill="#8671bf"/><circle cx="8" cy="8" r="8" transform="translate(1088 344)" fill="#8671bf"/><circle cx="8" cy="8" r="8" transform="translate(1124 344)" fill="#8671bf"/><circle cx="8" cy="8" r="8" transform="translate(1160 344)" fill="#8671bf"/><circle cx="8" cy="8" r="8" transform="translate(1196 344)" fill="#8671bf"/><circle cx="8" cy="8" r="8" transform="translate(1232 344)" fill="#8671bf"/><circle cx="8" cy="8" r="8" transform="translate(1268 344)" fill="#8671bf"/><circle cx="8" cy="8" r="8" transform="translate(1304 344)" fill="#8671bf"/><circle cx="8" cy="8" r="8" transform="translate(1340 344)" fill="#8671bf"/><circle cx="8" cy="8" r="8" transform="translate(1016 380)" fill="#8671bf"/><circle cx="8" cy="8" r="8" transform="translate(1052 380)" fill="#8671bf"/><circle cx="8" cy="8" r="8" transform="translate(1088 380)" fill="#8671bf"/><circle cx="8" cy="8" r="8" transform="translate(1124 380)" fill="#8671bf"/><circle cx="8" cy="8" r="8" transform="translate(1160 380)" fill="#8671bf"/><circle cx="8" cy="8" r="8" transform="translate(1196 380)" fill="#8671bf"/><circle cx="8" cy="8" r="8" transform="translate(1232 380)" fill="#8671bf"/><circle cx="8" cy="8" r="8" transform="translate(1268 380)" fill="#8671bf"/><circle cx="8" cy="8" r="8" transform="translate(1304 380)" fill="#8671bf"/><circle cx="8" cy="8" r="8" transform="translate(1340 380)" fill="#8671bf"/><circle cx="8" cy="8" r="8" transform="translate(1016 416)" fill="#8671bf"/><circle cx="8" cy="8" r="8" transform="translate(1052 416)" fill="#8671bf"/><circle cx="8" cy="8" r="8" transform="translate(1088 416)" fill="#8671bf"/><circle cx="8" cy="8" r="8" transform="translate(1124 416)" fill="#8671bf"/><circle cx="8" cy="8" r="8" transform="translate(1160 416)" fill="#8671bf"/><circle cx="8" cy="8" r="8" transform="translate(1196 416)" fill="#8671bf"/><circle cx="8" cy="8" r="8" transform="translate(1232 416)" fill="#8671bf"/><circle cx="8" cy="8" r="8" transform="translate(1268 416)" fill="#8671bf"/><circle cx="8" cy="8" r="8" transform="translate(1304 416)" fill="#8671bf"/><circle cx="8" cy="8" r="8" transform="translate(1340 416)" fill="#8671bf"/><circle cx="8" cy="8" r="8" transform="translate(1016 452)" fill="#8671bf"/><circle cx="8" cy="8" r="8" transform="translate(1052 452)" fill="#8671bf"/><circle cx="8" cy="8" r="8" transform="translate(1088 452)" fill="#8671bf"/><circle cx="8" cy="8" r="8" transform="translate(1124 452)" fill="#8671bf"/><circle cx="8" cy="8" r="8" transform="translate(1160 452)" fill="#8671bf"/><circle cx="8" cy="8" r="8" transform="translate(1196 452)" fill="#8671bf"/><circle cx="8" cy="8" r="8" transform="translate(1232 452)" fill="#8671bf"/><circle cx="8" cy="8" r="8" transform="translate(1268 452)" fill="#8671bf"/><circle cx="8" cy="8" r="8" transform="translate(1304 452)" fill="#8671bf"/><circle cx="8" cy="8" r="8" transform="translate(1340 452)" fill="#8671bf"/></g><g transform="translate(784 -272)"><circle cx="8" cy="8" r="8" transform="translate(1016 272)" fill="#8671bf"/><circle cx="8" cy="8" r="8" transform="translate(1052 272)" fill="#8671bf"/><circle cx="8" cy="8" r="8" transform="translate(1088 272)" fill="#8671bf"/><circle cx="8" cy="8" r="8" transform="translate(1124 272)" fill="#8671bf"/><circle cx="8" cy="8" r="8" transform="translate(1160 272)" fill="#8671bf"/><circle cx="8" cy="8" r="8" transform="translate(1196 272)" fill="#8671bf"/><circle cx="8" cy="8" r="8" transform="translate(1232 272)" fill="#8671bf"/><circle cx="8" cy="8" r="8" transform="translate(1268 272)" fill="#8671bf"/><circle cx="8" cy="8" r="8" transform="translate(1304 272)" fill="#8671bf"/><circle cx="8" cy="8" r="8" transform="translate(1340 272)" fill="#8671bf"/><circle cx="8" cy="8" r="8" transform="translate(1016 308)" fill="#8671bf"/><circle cx="8" cy="8" r="8" transform="translate(1052 308)" fill="#8671bf"/><circle cx="8" cy="8" r="8" transform="translate(1088 308)" fill="#8671bf"/><circle cx="8" cy="8" r="8" transform="translate(1124 308)" fill="#8671bf"/><circle cx="8" cy="8" r="8" transform="translate(1160 308)" fill="#8671bf"/><circle cx="8" cy="8" r="8" transform="translate(1196 308)" fill="#8671bf"/><circle cx="8" cy="8" r="8" transform="translate(1232 308)" fill="#8671bf"/><circle cx="8" cy="8" r="8" transform="translate(1268 308)" fill="#8671bf"/><circle cx="8" cy="8" r="8" transform="translate(1304 308)" fill="#8671bf"/><circle cx="8" cy="8" r="8" transform="translate(1340 308)" fill="#8671bf"/><circle cx="8" cy="8" r="8" transform="translate(1016 344)" fill="#8671bf"/><circle cx="8" cy="8" r="8" transform="translate(1052 344)" fill="#8671bf"/><circle cx="8" cy="8" r="8" transform="translate(1088 344)" fill="#8671bf"/><circle cx="8" cy="8" r="8" transform="translate(1124 344)" fill="#8671bf"/><circle cx="8" cy="8" r="8" transform="translate(1160 344)" fill="#8671bf"/><circle cx="8" cy="8" r="8" transform="translate(1196 344)" fill="#8671bf"/><circle cx="8" cy="8" r="8" transform="translate(1232 344)" fill="#8671bf"/><circle cx="8" cy="8" r="8" transform="translate(1268 344)" fill="#8671bf"/><circle cx="8" cy="8" r="8" transform="translate(1304 344)" fill="#8671bf"/><circle cx="8" cy="8" r="8" transform="translate(1340 344)" fill="#8671bf"/><circle cx="8" cy="8" r="8" transform="translate(1016 380)" fill="#8671bf"/><circle cx="8" cy="8" r="8" transform="translate(1052 380)" fill="#8671bf"/><circle cx="8" cy="8" r="8" transform="translate(1088 380)" fill="#8671bf"/><circle cx="8" cy="8" r="8" transform="translate(1124 380)" fill="#8671bf"/><circle cx="8" cy="8" r="8" transform="translate(1160 380)" fill="#8671bf"/><circle cx="8" cy="8" r="8" transform="translate(1196 380)" fill="#8671bf"/><circle cx="8" cy="8" r="8" transform="translate(1232 380)" fill="#8671bf"/><circle cx="8" cy="8" r="8" transform="translate(1268 380)" fill="#8671bf"/><circle cx="8" cy="8" r="8" transform="translate(1304 380)" fill="#8671bf"/><circle cx="8" cy="8" r="8" transform="translate(1340 380)" fill="#8671bf"/><circle cx="8" cy="8" r="8" transform="translate(1016 416)" fill="#8671bf"/><circle cx="8" cy="8" r="8" transform="translate(1052 416)" fill="#8671bf"/><circle cx="8" cy="8" r="8" transform="translate(1088 416)" fill="#8671bf"/><circle cx="8" cy="8" r="8" transform="translate(1124 416)" fill="#8671bf"/><circle cx="8" cy="8" r="8" transform="translate(1160 416)" fill="#8671bf"/><circle cx="8" cy="8" r="8" transform="translate(1196 416)" fill="#8671bf"/><circle cx="8" cy="8" r="8" transform="translate(1232 416)" fill="#8671bf"/><circle cx="8" cy="8" r="8" transform="translate(1268 416)" fill="#8671bf"/><circle cx="8" cy="8" r="8" transform="translate(1304 416)" fill="#8671bf"/><circle cx="8" cy="8" r="8" transform="translate(1340 416)" fill="#8671bf"/><circle cx="8" cy="8" r="8" transform="translate(1016 452)" fill="#8671bf"/><circle cx="8" cy="8" r="8" transform="translate(1052 452)" fill="#8671bf"/><circle cx="8" cy="8" r="8" transform="translate(1088 452)" fill="#8671bf"/><circle cx="8" cy="8" r="8" transform="translate(1124 452)" fill="#8671bf"/><circle cx="8" cy="8" r="8" transform="translate(1160 452)" fill="#8671bf"/><circle cx="8" cy="8" r="8" transform="translate(1196 452)" fill="#8671bf"/><circle cx="8" cy="8" r="8" transform="translate(1232 452)" fill="#8671bf"/><circle cx="8" cy="8" r="8" transform="translate(1268 452)" fill="#8671bf"/><circle cx="8" cy="8" r="8" transform="translate(1304 452)" fill="#8671bf"/><circle cx="8" cy="8" r="8" transform="translate(1340 452)" fill="#8671bf"/></g></g></svg>