<svg xmlns="http://www.w3.org/2000/svg" width="35.331" height="35.319" viewBox="0 0 35.331 35.319">
  <g id="Group_300" data-name="Group 300" transform="translate(-1565.5 -201.247)">
    <path id="Path_164" data-name="Path 164" d="M1567,217.053v17.135a.843.843,0,0,0,.8.877h26.039a2.06,2.06,0,0,0,1.959-1.67l3.433-15.046a2.936,2.936,0,0,0-2.656-3.706h-9.955a.1.1,0,0,1-.084-.137,17.562,17.562,0,0,0,1.1-9.4c-.394-3.006-6.222-3.35-6.3.172-.238,8.331-4.806,10.822-7.8,10.822-1.3,0-4.307.048-5.746.072A.844.844,0,0,0,1567,217.053Z" transform="translate(0 0)" fill="none" stroke="#4d4bff" stroke-miterlimit="10" stroke-width="3"/>
    <line id="Line_176" data-name="Line 176" y2="17.478" transform="translate(1573.537 217.588)" fill="none" stroke="#4d4bff" stroke-miterlimit="10" stroke-width="3"/>
    <line id="Line_177" data-name="Line 177" x1="8.128" transform="translate(1590.228 222.182)" fill="none" stroke="#4d4bff" stroke-linecap="round" stroke-miterlimit="10" stroke-width="3"/>
    <line id="Line_178" data-name="Line 178" x1="6.659" transform="translate(1590.122 228.576)" fill="none" stroke="#4d4bff" stroke-linecap="round" stroke-miterlimit="10" stroke-width="3"/>
  </g>
</svg>
