<svg xmlns="http://www.w3.org/2000/svg" width="253.666" height="31.831" viewBox="0 0 253.666 31.831">
  <g id="puk-logo" transform="translate(-828.433 -520.001)">
    <g id="Puk_" data-name="Puk " style="isolation: isolate">
      <g id="Group_315" data-name="Group 315" style="isolation: isolate">
        <path id="Path_185" data-name="Path 185" d="M840.628,533.547q-1.785,1.727-5.445,1.725h-4.02V544h-2.73v-20.91h6.75a7.656,7.656,0,0,1,5.385,1.71,6.175,6.175,0,0,1,.06,8.745Zm-2.085-1.514a3.635,3.635,0,0,0,1.08-2.821q0-3.87-4.44-3.87h-4.02v7.68h4.02A4.853,4.853,0,0,0,838.543,532.033Z"/>
        <path id="Path_186" data-name="Path 186" d="M860.383,527.562V544h-2.73v-2.43a5.321,5.321,0,0,1-2.175,1.965,6.722,6.722,0,0,1-3.075.705,7.358,7.358,0,0,1-3.45-.795,5.774,5.774,0,0,1-2.415-2.385,7.85,7.85,0,0,1-.885-3.869v-9.631h2.7v9.271a5.236,5.236,0,0,0,1.23,3.735,4.395,4.395,0,0,0,3.36,1.3,4.491,4.491,0,0,0,3.45-1.35,5.554,5.554,0,0,0,1.26-3.93v-9.03Z"/>
        <path id="Path_187" data-name="Path 187" d="M874.183,544l-6.45-7.259V544H865V521.8h2.73v13.05l6.33-7.29h3.81l-7.74,8.19L877.9,544Z"/>
      </g>
    </g>
    <g id="Damgaard" style="isolation: isolate">
      <g id="Group_316" data-name="Group 316" style="isolation: isolate">
        <path id="Path_188" data-name="Path 188" d="M939.376,525.022a8.659,8.659,0,0,1,3.712,3.523,11.885,11.885,0,0,1,0,10.774,8.513,8.513,0,0,1-3.712,3.48,12.733,12.733,0,0,1-5.727,1.2h-6.293V523.79h6.293A12.485,12.485,0,0,1,939.376,525.022Zm.247,14.732a7.893,7.893,0,0,0,2.059-5.815,8.053,8.053,0,0,0-2.074-5.887,7.967,7.967,0,0,0-5.959-2.117h-3.654v15.892h3.654A8.059,8.059,0,0,0,939.623,539.754Z"/>
        <path id="Path_189" data-name="Path 189" d="M947.858,531.721a7.161,7.161,0,0,1,2.712-2.856,7.434,7.434,0,0,1,3.843-1.016,7.046,7.046,0,0,1,3.625.9,6,6,0,0,1,2.291,2.261v-2.9H963V544h-2.668v-2.958a6.229,6.229,0,0,1-2.335,2.306,7,7,0,0,1-3.611.913,7.2,7.2,0,0,1-3.827-1.044,7.328,7.328,0,0,1-2.7-2.928,9.128,9.128,0,0,1-.985-4.292A8.933,8.933,0,0,1,947.858,531.721ZM959.6,532.9a5.133,5.133,0,0,0-1.958-2.044,5.55,5.55,0,0,0-5.409-.015,5.045,5.045,0,0,0-1.943,2.031,6.463,6.463,0,0,0-.725,3.132,6.614,6.614,0,0,0,.725,3.175,5.119,5.119,0,0,0,1.943,2.058,5.255,5.255,0,0,0,2.7.711,5.332,5.332,0,0,0,2.711-.711,5.1,5.1,0,0,0,1.958-2.058,6.561,6.561,0,0,0,.725-3.146A6.481,6.481,0,0,0,959.6,532.9Z"/>
        <path id="Path_190" data-name="Path 190" d="M989.88,528.589a5.552,5.552,0,0,1,2.291,2.3,7.709,7.709,0,0,1,.841,3.741V544H990.4v-8.99a5.154,5.154,0,0,0-1.173-3.639,4.131,4.131,0,0,0-3.176-1.261,4.245,4.245,0,0,0-3.278,1.319,5.433,5.433,0,0,0-1.217,3.814V544h-2.611v-8.99a5.144,5.144,0,0,0-1.174-3.639,4.127,4.127,0,0,0-3.175-1.261,4.245,4.245,0,0,0-3.278,1.319,5.433,5.433,0,0,0-1.217,3.814V544h-2.639V528.111H970.1V530.4a5.209,5.209,0,0,1,2.1-1.914,6.355,6.355,0,0,1,2.915-.667,6.884,6.884,0,0,1,3.537.9,5.486,5.486,0,0,1,2.291,2.64,5.225,5.225,0,0,1,2.2-2.61,6.49,6.49,0,0,1,3.423-.928A6.958,6.958,0,0,1,989.88,528.589Z"/>
        <path id="Path_191" data-name="Path 191" d="M1007.5,528.749a5.971,5.971,0,0,1,2.306,2.261v-2.9h2.668V544.35a7.944,7.944,0,0,1-.928,3.872,6.622,6.622,0,0,1-2.653,2.653,8.154,8.154,0,0,1-4.017.957,8.807,8.807,0,0,1-5.22-1.479,5.781,5.781,0,0,1-2.466-4.031H999.8a4.153,4.153,0,0,0,1.8,2.334,5.885,5.885,0,0,0,3.277.885,4.837,4.837,0,0,0,3.553-1.363,5.146,5.146,0,0,0,1.377-3.828v-3.335a6.339,6.339,0,0,1-2.321,2.32,6.813,6.813,0,0,1-3.595.928,7.23,7.23,0,0,1-6.554-3.972,9.129,9.129,0,0,1-.986-4.292,8.934,8.934,0,0,1,.986-4.278,7.158,7.158,0,0,1,2.711-2.856,7.436,7.436,0,0,1,3.843-1.016A7.062,7.062,0,0,1,1007.5,528.749Zm1.581,4.146a5.126,5.126,0,0,0-1.958-2.044,5.549,5.549,0,0,0-5.408-.015,5.039,5.039,0,0,0-1.943,2.031,6.452,6.452,0,0,0-.725,3.132,6.6,6.6,0,0,0,.725,3.175,5.113,5.113,0,0,0,1.943,2.058,5.249,5.249,0,0,0,2.7.711,5.326,5.326,0,0,0,2.711-.711,5.094,5.094,0,0,0,1.958-2.058,6.55,6.55,0,0,0,.725-3.146A6.47,6.47,0,0,0,1009.078,532.9Z"/>
        <path id="Path_192" data-name="Path 192" d="M1016.937,531.721a7.156,7.156,0,0,1,2.71-2.856,7.439,7.439,0,0,1,3.843-1.016,7.041,7.041,0,0,1,3.625.9,5.99,5.99,0,0,1,2.291,2.261v-2.9h2.668V544h-2.668v-2.958a6.227,6.227,0,0,1-2.334,2.306,7,7,0,0,1-3.611.913,7.2,7.2,0,0,1-3.827-1.044,7.312,7.312,0,0,1-2.7-2.928,9.117,9.117,0,0,1-.987-4.292A8.922,8.922,0,0,1,1016.937,531.721Zm11.745,1.174a5.132,5.132,0,0,0-1.958-2.044,5.55,5.55,0,0,0-5.409-.015,5.045,5.045,0,0,0-1.943,2.031,6.463,6.463,0,0,0-.725,3.132,6.614,6.614,0,0,0,.725,3.175,5.119,5.119,0,0,0,1.943,2.058,5.253,5.253,0,0,0,2.7.711,5.332,5.332,0,0,0,2.711-.711,5.1,5.1,0,0,0,1.958-2.058,6.562,6.562,0,0,0,.724-3.146A6.481,6.481,0,0,0,1028.682,532.9Z"/>
        <path id="Path_193" data-name="Path 193" d="M1036.54,531.721a7.161,7.161,0,0,1,2.712-2.856,7.434,7.434,0,0,1,3.843-1.016,7.051,7.051,0,0,1,3.625.9,6,6,0,0,1,2.291,2.261v-2.9h2.668V544h-2.668v-2.958a6.237,6.237,0,0,1-2.335,2.306,6.993,6.993,0,0,1-3.611.913,7.205,7.205,0,0,1-3.828-1.044,7.326,7.326,0,0,1-2.7-2.928,9.128,9.128,0,0,1-.985-4.292A8.933,8.933,0,0,1,1036.54,531.721Zm11.745,1.174a5.123,5.123,0,0,0-1.957-2.044,5.551,5.551,0,0,0-5.409-.015,5.037,5.037,0,0,0-1.942,2.031,6.452,6.452,0,0,0-.726,3.132,6.6,6.6,0,0,0,.726,3.175,5.111,5.111,0,0,0,1.942,2.058,5.255,5.255,0,0,0,2.7.711,5.33,5.33,0,0,0,2.712-.711,5.092,5.092,0,0,0,1.957-2.058,6.538,6.538,0,0,0,.726-3.146A6.458,6.458,0,0,0,1048.285,532.9Z"/>
        <path id="Path_194" data-name="Path 194" d="M1060.77,528.575a6.135,6.135,0,0,1,3.146-.754v2.725h-.7q-4.437,0-4.438,4.815V544h-2.638V528.111h2.638v2.581A5.059,5.059,0,0,1,1060.77,528.575Z"/>
        <path id="Path_195" data-name="Path 195" d="M1066.961,531.721a7.151,7.151,0,0,1,2.711-2.856,7.49,7.49,0,0,1,3.872-1.016,7.192,7.192,0,0,1,3.451.856,6.184,6.184,0,0,1,2.436,2.248v-8.411h2.668V544h-2.668v-2.987a6.172,6.172,0,0,1-2.321,2.335,6.909,6.909,0,0,1-3.595.913,7.23,7.23,0,0,1-6.554-3.972,9.127,9.127,0,0,1-.986-4.292A8.932,8.932,0,0,1,1066.961,531.721Zm11.745,1.174a5.126,5.126,0,0,0-1.958-2.044,5.549,5.549,0,0,0-5.408-.015,5.048,5.048,0,0,0-1.944,2.031,6.462,6.462,0,0,0-.724,3.132,6.614,6.614,0,0,0,.724,3.175,5.122,5.122,0,0,0,1.944,2.058,5.25,5.25,0,0,0,2.7.711,5.329,5.329,0,0,0,2.711-.711,5.1,5.1,0,0,0,1.958-2.058,6.562,6.562,0,0,0,.725-3.146A6.481,6.481,0,0,0,1078.706,532.9Z"/>
      </g>
    </g>
    <g id="Group_75" data-name="Group 75">
      <g id="Ellipse_31" data-name="Ellipse 31">
        <ellipse id="Ellipse_41" data-name="Ellipse 41" cx="13" cy="13.5" rx="13" ry="13.5" transform="translate(888.122 520.001)" fill="none"/>
        <ellipse id="Ellipse_42" data-name="Ellipse 42" cx="11.5" cy="12" rx="11.5" ry="12" transform="translate(889.622 521.501)" fill="none" stroke="#000" stroke-width="2"/>
      </g>
      <path id="Path_75" data-name="Path 75" d="M905.652,522.011v9.254l-12.325-7.118,8.351,4.83-12.562,6.92,8.095-4.4v13.964l.161-9.354,11.792,6.887-7.484-4.556,11.142-7.009L909.5,533.5l-3.846,2.393v-4.5" fill="none" stroke="#000" stroke-width="2"/>
    </g>
  </g>
</svg>
