<svg xmlns="http://www.w3.org/2000/svg" width="37.087" height="35.682" viewBox="0 0 37.087 35.682">
  <g id="Path_180" data-name="Path 180" transform="translate(-1178.242 -519.675)" fill="none">
    <path d="M1197.878,523.354l3.859,7.819a1.218,1.218,0,0,0,.917.667l8.628,1.254a1.218,1.218,0,0,1,.675,2.078l-6.243,6.086a1.219,1.219,0,0,0-.35,1.078l1.474,8.594a1.219,1.219,0,0,1-1.768,1.284l-7.717-4.057a1.219,1.219,0,0,0-1.134,0l-7.718,4.057a1.218,1.218,0,0,1-1.768-1.284l1.474-8.594a1.218,1.218,0,0,0-.35-1.078l-6.243-6.086a1.219,1.219,0,0,1,.675-2.078l8.628-1.254a1.219,1.219,0,0,0,.918-.667l3.859-7.819A1.219,1.219,0,0,1,1197.878,523.354Z" stroke="none"/>
    <path d="M 1196.785400390625 522.674560546875 C 1196.350830078125 522.674560546875 1195.916137695313 522.9009399414063 1195.692626953125 523.353759765625 L 1191.834106445313 531.1724243164063 C 1191.656616210938 531.5320434570313 1191.313354492188 531.7813110351563 1190.91650390625 531.8389282226563 L 1182.288330078125 533.0927734375 C 1181.288940429688 533.2379760742188 1180.889892578125 534.4661865234375 1181.613037109375 535.171142578125 L 1187.8564453125 541.257080078125 C 1188.143798828125 541.5369873046875 1188.274658203125 541.9403686523438 1188.206909179688 542.3355712890625 L 1186.733154296875 550.9290771484375 C 1186.597900390625 551.7166748046875 1187.223754882813 552.356201171875 1187.933837890625 552.356201171875 C 1188.12109375 552.356201171875 1188.314453125 552.3116455078125 1188.5009765625 552.2135620117188 L 1196.218505859375 548.1563110351563 C 1196.39599609375 548.06298828125 1196.590698242188 548.016357421875 1196.785522460938 548.016357421875 C 1196.980346679688 548.016357421875 1197.175048828125 548.06298828125 1197.3525390625 548.1563110351563 L 1205.06982421875 552.2135620117188 C 1205.256469726563 552.3117065429688 1205.44970703125 552.356201171875 1205.637084960938 552.356201171875 C 1206.347045898438 552.356201171875 1206.972900390625 551.7166137695313 1206.837890625 550.9290771484375 L 1205.364013671875 542.3355712890625 C 1205.29638671875 541.9403686523438 1205.42724609375 541.5369873046875 1205.714477539063 541.257080078125 L 1211.957763671875 535.171142578125 C 1212.68115234375 534.4661865234375 1212.282104492188 533.2379760742188 1211.282592773438 533.0927734375 L 1202.654296875 531.8389282226563 C 1202.257446289063 531.7813110351563 1201.914306640625 531.5320434570313 1201.73681640625 531.1724243164063 L 1197.878173828125 523.353759765625 C 1197.654663085938 522.9009399414063 1197.220092773438 522.674560546875 1196.785400390625 522.674560546875 M 1196.785400390625 519.674560546875 C 1198.40283203125 519.674560546875 1199.852294921875 520.5755004882813 1200.568237304688 522.0258178710938 L 1204.012451171875 529.0047607421875 L 1211.713989257813 530.1239624023438 C 1213.314697265625 530.3565063476563 1214.61962890625 531.4566650390625 1215.119506835938 532.9951171875 C 1215.619262695313 534.5335693359375 1215.210083007813 536.190673828125 1214.051513671875 537.3196411132813 L 1208.479125976563 542.7515869140625 L 1209.794677734375 550.4219360351563 C 1210.005493164063 551.6511840820313 1209.667236328125 552.9005737304688 1208.86669921875 553.8499755859375 C 1208.059692382813 554.8071899414063 1206.882446289063 555.356201171875 1205.637084960938 555.356201171875 C 1204.959106445313 555.356201171875 1204.280151367188 555.187744140625 1203.673828125 554.8690185546875 L 1196.785522460938 551.24755859375 L 1189.89697265625 554.8689575195313 C 1189.290771484375 555.187744140625 1188.61181640625 555.356201171875 1187.933837890625 555.356201171875 C 1186.688232421875 555.356201171875 1185.510864257813 554.8070678710938 1184.703857421875 553.8496704101563 C 1183.903442382813 552.9000854492188 1183.5654296875 551.6505126953125 1183.7763671875 550.42138671875 L 1185.091796875 542.7515869140625 L 1179.51904296875 537.3193969726563 C 1178.360717773438 536.190185546875 1177.951782226563 534.533203125 1178.45166015625 532.994873046875 C 1178.951538085938 531.45654296875 1180.25634765625 530.3565063476563 1181.85693359375 530.1239624023438 L 1189.558471679688 529.0047607421875 L 1193.00244140625 522.026123046875 C 1193.718383789063 520.5755004882813 1195.16796875 519.674560546875 1196.785400390625 519.674560546875 Z" stroke="none" fill="#4d4bff"/>
  </g>
</svg>
