<svg xmlns="http://www.w3.org/2000/svg" xmlns:xlink="http://www.w3.org/1999/xlink" width="1967" height="101" viewBox="0 0 1967 101">
  <defs>
    <clipPath id="clip-path">
      <rect width="1967" height="101" fill="none"/>
    </clipPath>
  </defs>
  <g id="Repeat_Grid_11" data-name="Repeat Grid 11" opacity="0.5" clip-path="url(#clip-path)">
    <g id="Group_66" data-name="Group 66" transform="translate(-1016 -272)">
      <circle id="Ellipse_12" data-name="Ellipse 12" cx="8" cy="8" r="8" transform="translate(1016 272)" fill="#8671bf"/>
      <circle id="Ellipse_12-2" data-name="Ellipse 12" cx="8" cy="8" r="8" transform="translate(1052 272)" fill="#8671bf"/>
      <circle id="Ellipse_12-3" data-name="Ellipse 12" cx="8" cy="8" r="8" transform="translate(1088 272)" fill="#8671bf"/>
      <circle id="Ellipse_12-4" data-name="Ellipse 12" cx="8" cy="8" r="8" transform="translate(1124 272)" fill="#8671bf"/>
      <circle id="Ellipse_12-5" data-name="Ellipse 12" cx="8" cy="8" r="8" transform="translate(1160 272)" fill="#8671bf"/>
      <circle id="Ellipse_12-6" data-name="Ellipse 12" cx="8" cy="8" r="8" transform="translate(1196 272)" fill="#8671bf"/>
      <circle id="Ellipse_12-7" data-name="Ellipse 12" cx="8" cy="8" r="8" transform="translate(1232 272)" fill="#8671bf"/>
      <circle id="Ellipse_12-8" data-name="Ellipse 12" cx="8" cy="8" r="8" transform="translate(1268 272)" fill="#8671bf"/>
      <circle id="Ellipse_12-9" data-name="Ellipse 12" cx="8" cy="8" r="8" transform="translate(1304 272)" fill="#8671bf"/>
      <circle id="Ellipse_12-10" data-name="Ellipse 12" cx="8" cy="8" r="8" transform="translate(1340 272)" fill="#8671bf"/>
      <circle id="Ellipse_12-11" data-name="Ellipse 12" cx="8" cy="8" r="8" transform="translate(1016 308)" fill="#8671bf"/>
      <circle id="Ellipse_12-12" data-name="Ellipse 12" cx="8" cy="8" r="8" transform="translate(1052 308)" fill="#8671bf"/>
      <circle id="Ellipse_12-13" data-name="Ellipse 12" cx="8" cy="8" r="8" transform="translate(1088 308)" fill="#8671bf"/>
      <circle id="Ellipse_12-14" data-name="Ellipse 12" cx="8" cy="8" r="8" transform="translate(1124 308)" fill="#8671bf"/>
      <circle id="Ellipse_12-15" data-name="Ellipse 12" cx="8" cy="8" r="8" transform="translate(1160 308)" fill="#8671bf"/>
      <circle id="Ellipse_12-16" data-name="Ellipse 12" cx="8" cy="8" r="8" transform="translate(1196 308)" fill="#8671bf"/>
      <circle id="Ellipse_12-17" data-name="Ellipse 12" cx="8" cy="8" r="8" transform="translate(1232 308)" fill="#8671bf"/>
      <circle id="Ellipse_12-18" data-name="Ellipse 12" cx="8" cy="8" r="8" transform="translate(1268 308)" fill="#8671bf"/>
      <circle id="Ellipse_12-19" data-name="Ellipse 12" cx="8" cy="8" r="8" transform="translate(1304 308)" fill="#8671bf"/>
      <circle id="Ellipse_12-20" data-name="Ellipse 12" cx="8" cy="8" r="8" transform="translate(1340 308)" fill="#8671bf"/>
      <circle id="Ellipse_12-21" data-name="Ellipse 12" cx="8" cy="8" r="8" transform="translate(1016 344)" fill="#8671bf"/>
      <circle id="Ellipse_12-22" data-name="Ellipse 12" cx="8" cy="8" r="8" transform="translate(1052 344)" fill="#8671bf"/>
      <circle id="Ellipse_12-23" data-name="Ellipse 12" cx="8" cy="8" r="8" transform="translate(1088 344)" fill="#8671bf"/>
      <circle id="Ellipse_12-24" data-name="Ellipse 12" cx="8" cy="8" r="8" transform="translate(1124 344)" fill="#8671bf"/>
      <circle id="Ellipse_12-25" data-name="Ellipse 12" cx="8" cy="8" r="8" transform="translate(1160 344)" fill="#8671bf"/>
      <circle id="Ellipse_12-26" data-name="Ellipse 12" cx="8" cy="8" r="8" transform="translate(1196 344)" fill="#8671bf"/>
      <circle id="Ellipse_12-27" data-name="Ellipse 12" cx="8" cy="8" r="8" transform="translate(1232 344)" fill="#8671bf"/>
      <circle id="Ellipse_12-28" data-name="Ellipse 12" cx="8" cy="8" r="8" transform="translate(1268 344)" fill="#8671bf"/>
      <circle id="Ellipse_12-29" data-name="Ellipse 12" cx="8" cy="8" r="8" transform="translate(1304 344)" fill="#8671bf"/>
      <circle id="Ellipse_12-30" data-name="Ellipse 12" cx="8" cy="8" r="8" transform="translate(1340 344)" fill="#8671bf"/>
      <circle id="Ellipse_12-31" data-name="Ellipse 12" cx="8" cy="8" r="8" transform="translate(1016 380)" fill="#8671bf"/>
      <circle id="Ellipse_12-32" data-name="Ellipse 12" cx="8" cy="8" r="8" transform="translate(1052 380)" fill="#8671bf"/>
      <circle id="Ellipse_12-33" data-name="Ellipse 12" cx="8" cy="8" r="8" transform="translate(1088 380)" fill="#8671bf"/>
      <circle id="Ellipse_12-34" data-name="Ellipse 12" cx="8" cy="8" r="8" transform="translate(1124 380)" fill="#8671bf"/>
      <circle id="Ellipse_12-35" data-name="Ellipse 12" cx="8" cy="8" r="8" transform="translate(1160 380)" fill="#8671bf"/>
      <circle id="Ellipse_12-36" data-name="Ellipse 12" cx="8" cy="8" r="8" transform="translate(1196 380)" fill="#8671bf"/>
      <circle id="Ellipse_12-37" data-name="Ellipse 12" cx="8" cy="8" r="8" transform="translate(1232 380)" fill="#8671bf"/>
      <circle id="Ellipse_12-38" data-name="Ellipse 12" cx="8" cy="8" r="8" transform="translate(1268 380)" fill="#8671bf"/>
      <circle id="Ellipse_12-39" data-name="Ellipse 12" cx="8" cy="8" r="8" transform="translate(1304 380)" fill="#8671bf"/>
      <circle id="Ellipse_12-40" data-name="Ellipse 12" cx="8" cy="8" r="8" transform="translate(1340 380)" fill="#8671bf"/>
      <circle id="Ellipse_12-41" data-name="Ellipse 12" cx="8" cy="8" r="8" transform="translate(1016 416)" fill="#8671bf"/>
      <circle id="Ellipse_12-42" data-name="Ellipse 12" cx="8" cy="8" r="8" transform="translate(1052 416)" fill="#8671bf"/>
      <circle id="Ellipse_12-43" data-name="Ellipse 12" cx="8" cy="8" r="8" transform="translate(1088 416)" fill="#8671bf"/>
      <circle id="Ellipse_12-44" data-name="Ellipse 12" cx="8" cy="8" r="8" transform="translate(1124 416)" fill="#8671bf"/>
      <circle id="Ellipse_12-45" data-name="Ellipse 12" cx="8" cy="8" r="8" transform="translate(1160 416)" fill="#8671bf"/>
      <circle id="Ellipse_12-46" data-name="Ellipse 12" cx="8" cy="8" r="8" transform="translate(1196 416)" fill="#8671bf"/>
      <circle id="Ellipse_12-47" data-name="Ellipse 12" cx="8" cy="8" r="8" transform="translate(1232 416)" fill="#8671bf"/>
      <circle id="Ellipse_12-48" data-name="Ellipse 12" cx="8" cy="8" r="8" transform="translate(1268 416)" fill="#8671bf"/>
      <circle id="Ellipse_12-49" data-name="Ellipse 12" cx="8" cy="8" r="8" transform="translate(1304 416)" fill="#8671bf"/>
      <circle id="Ellipse_12-50" data-name="Ellipse 12" cx="8" cy="8" r="8" transform="translate(1340 416)" fill="#8671bf"/>
      <circle id="Ellipse_12-51" data-name="Ellipse 12" cx="8" cy="8" r="8" transform="translate(1016 452)" fill="#8671bf"/>
      <circle id="Ellipse_12-52" data-name="Ellipse 12" cx="8" cy="8" r="8" transform="translate(1052 452)" fill="#8671bf"/>
      <circle id="Ellipse_12-53" data-name="Ellipse 12" cx="8" cy="8" r="8" transform="translate(1088 452)" fill="#8671bf"/>
      <circle id="Ellipse_12-54" data-name="Ellipse 12" cx="8" cy="8" r="8" transform="translate(1124 452)" fill="#8671bf"/>
      <circle id="Ellipse_12-55" data-name="Ellipse 12" cx="8" cy="8" r="8" transform="translate(1160 452)" fill="#8671bf"/>
      <circle id="Ellipse_12-56" data-name="Ellipse 12" cx="8" cy="8" r="8" transform="translate(1196 452)" fill="#8671bf"/>
      <circle id="Ellipse_12-57" data-name="Ellipse 12" cx="8" cy="8" r="8" transform="translate(1232 452)" fill="#8671bf"/>
      <circle id="Ellipse_12-58" data-name="Ellipse 12" cx="8" cy="8" r="8" transform="translate(1268 452)" fill="#8671bf"/>
      <circle id="Ellipse_12-59" data-name="Ellipse 12" cx="8" cy="8" r="8" transform="translate(1304 452)" fill="#8671bf"/>
      <circle id="Ellipse_12-60" data-name="Ellipse 12" cx="8" cy="8" r="8" transform="translate(1340 452)" fill="#8671bf"/>
    </g>
    <g id="Group_66-2" data-name="Group 66" transform="translate(-656 -272)">
      <circle id="Ellipse_12-61" data-name="Ellipse 12" cx="8" cy="8" r="8" transform="translate(1016 272)" fill="#8671bf"/>
      <circle id="Ellipse_12-62" data-name="Ellipse 12" cx="8" cy="8" r="8" transform="translate(1052 272)" fill="#8671bf"/>
      <circle id="Ellipse_12-63" data-name="Ellipse 12" cx="8" cy="8" r="8" transform="translate(1088 272)" fill="#8671bf"/>
      <circle id="Ellipse_12-64" data-name="Ellipse 12" cx="8" cy="8" r="8" transform="translate(1124 272)" fill="#8671bf"/>
      <circle id="Ellipse_12-65" data-name="Ellipse 12" cx="8" cy="8" r="8" transform="translate(1160 272)" fill="#8671bf"/>
      <circle id="Ellipse_12-66" data-name="Ellipse 12" cx="8" cy="8" r="8" transform="translate(1196 272)" fill="#8671bf"/>
      <circle id="Ellipse_12-67" data-name="Ellipse 12" cx="8" cy="8" r="8" transform="translate(1232 272)" fill="#8671bf"/>
      <circle id="Ellipse_12-68" data-name="Ellipse 12" cx="8" cy="8" r="8" transform="translate(1268 272)" fill="#8671bf"/>
      <circle id="Ellipse_12-69" data-name="Ellipse 12" cx="8" cy="8" r="8" transform="translate(1304 272)" fill="#8671bf"/>
      <circle id="Ellipse_12-70" data-name="Ellipse 12" cx="8" cy="8" r="8" transform="translate(1340 272)" fill="#8671bf"/>
      <circle id="Ellipse_12-71" data-name="Ellipse 12" cx="8" cy="8" r="8" transform="translate(1016 308)" fill="#8671bf"/>
      <circle id="Ellipse_12-72" data-name="Ellipse 12" cx="8" cy="8" r="8" transform="translate(1052 308)" fill="#8671bf"/>
      <circle id="Ellipse_12-73" data-name="Ellipse 12" cx="8" cy="8" r="8" transform="translate(1088 308)" fill="#8671bf"/>
      <circle id="Ellipse_12-74" data-name="Ellipse 12" cx="8" cy="8" r="8" transform="translate(1124 308)" fill="#8671bf"/>
      <circle id="Ellipse_12-75" data-name="Ellipse 12" cx="8" cy="8" r="8" transform="translate(1160 308)" fill="#8671bf"/>
      <circle id="Ellipse_12-76" data-name="Ellipse 12" cx="8" cy="8" r="8" transform="translate(1196 308)" fill="#8671bf"/>
      <circle id="Ellipse_12-77" data-name="Ellipse 12" cx="8" cy="8" r="8" transform="translate(1232 308)" fill="#8671bf"/>
      <circle id="Ellipse_12-78" data-name="Ellipse 12" cx="8" cy="8" r="8" transform="translate(1268 308)" fill="#8671bf"/>
      <circle id="Ellipse_12-79" data-name="Ellipse 12" cx="8" cy="8" r="8" transform="translate(1304 308)" fill="#8671bf"/>
      <circle id="Ellipse_12-80" data-name="Ellipse 12" cx="8" cy="8" r="8" transform="translate(1340 308)" fill="#8671bf"/>
      <circle id="Ellipse_12-81" data-name="Ellipse 12" cx="8" cy="8" r="8" transform="translate(1016 344)" fill="#8671bf"/>
      <circle id="Ellipse_12-82" data-name="Ellipse 12" cx="8" cy="8" r="8" transform="translate(1052 344)" fill="#8671bf"/>
      <circle id="Ellipse_12-83" data-name="Ellipse 12" cx="8" cy="8" r="8" transform="translate(1088 344)" fill="#8671bf"/>
      <circle id="Ellipse_12-84" data-name="Ellipse 12" cx="8" cy="8" r="8" transform="translate(1124 344)" fill="#8671bf"/>
      <circle id="Ellipse_12-85" data-name="Ellipse 12" cx="8" cy="8" r="8" transform="translate(1160 344)" fill="#8671bf"/>
      <circle id="Ellipse_12-86" data-name="Ellipse 12" cx="8" cy="8" r="8" transform="translate(1196 344)" fill="#8671bf"/>
      <circle id="Ellipse_12-87" data-name="Ellipse 12" cx="8" cy="8" r="8" transform="translate(1232 344)" fill="#8671bf"/>
      <circle id="Ellipse_12-88" data-name="Ellipse 12" cx="8" cy="8" r="8" transform="translate(1268 344)" fill="#8671bf"/>
      <circle id="Ellipse_12-89" data-name="Ellipse 12" cx="8" cy="8" r="8" transform="translate(1304 344)" fill="#8671bf"/>
      <circle id="Ellipse_12-90" data-name="Ellipse 12" cx="8" cy="8" r="8" transform="translate(1340 344)" fill="#8671bf"/>
      <circle id="Ellipse_12-91" data-name="Ellipse 12" cx="8" cy="8" r="8" transform="translate(1016 380)" fill="#8671bf"/>
      <circle id="Ellipse_12-92" data-name="Ellipse 12" cx="8" cy="8" r="8" transform="translate(1052 380)" fill="#8671bf"/>
      <circle id="Ellipse_12-93" data-name="Ellipse 12" cx="8" cy="8" r="8" transform="translate(1088 380)" fill="#8671bf"/>
      <circle id="Ellipse_12-94" data-name="Ellipse 12" cx="8" cy="8" r="8" transform="translate(1124 380)" fill="#8671bf"/>
      <circle id="Ellipse_12-95" data-name="Ellipse 12" cx="8" cy="8" r="8" transform="translate(1160 380)" fill="#8671bf"/>
      <circle id="Ellipse_12-96" data-name="Ellipse 12" cx="8" cy="8" r="8" transform="translate(1196 380)" fill="#8671bf"/>
      <circle id="Ellipse_12-97" data-name="Ellipse 12" cx="8" cy="8" r="8" transform="translate(1232 380)" fill="#8671bf"/>
      <circle id="Ellipse_12-98" data-name="Ellipse 12" cx="8" cy="8" r="8" transform="translate(1268 380)" fill="#8671bf"/>
      <circle id="Ellipse_12-99" data-name="Ellipse 12" cx="8" cy="8" r="8" transform="translate(1304 380)" fill="#8671bf"/>
      <circle id="Ellipse_12-100" data-name="Ellipse 12" cx="8" cy="8" r="8" transform="translate(1340 380)" fill="#8671bf"/>
      <circle id="Ellipse_12-101" data-name="Ellipse 12" cx="8" cy="8" r="8" transform="translate(1016 416)" fill="#8671bf"/>
      <circle id="Ellipse_12-102" data-name="Ellipse 12" cx="8" cy="8" r="8" transform="translate(1052 416)" fill="#8671bf"/>
      <circle id="Ellipse_12-103" data-name="Ellipse 12" cx="8" cy="8" r="8" transform="translate(1088 416)" fill="#8671bf"/>
      <circle id="Ellipse_12-104" data-name="Ellipse 12" cx="8" cy="8" r="8" transform="translate(1124 416)" fill="#8671bf"/>
      <circle id="Ellipse_12-105" data-name="Ellipse 12" cx="8" cy="8" r="8" transform="translate(1160 416)" fill="#8671bf"/>
      <circle id="Ellipse_12-106" data-name="Ellipse 12" cx="8" cy="8" r="8" transform="translate(1196 416)" fill="#8671bf"/>
      <circle id="Ellipse_12-107" data-name="Ellipse 12" cx="8" cy="8" r="8" transform="translate(1232 416)" fill="#8671bf"/>
      <circle id="Ellipse_12-108" data-name="Ellipse 12" cx="8" cy="8" r="8" transform="translate(1268 416)" fill="#8671bf"/>
      <circle id="Ellipse_12-109" data-name="Ellipse 12" cx="8" cy="8" r="8" transform="translate(1304 416)" fill="#8671bf"/>
      <circle id="Ellipse_12-110" data-name="Ellipse 12" cx="8" cy="8" r="8" transform="translate(1340 416)" fill="#8671bf"/>
      <circle id="Ellipse_12-111" data-name="Ellipse 12" cx="8" cy="8" r="8" transform="translate(1016 452)" fill="#8671bf"/>
      <circle id="Ellipse_12-112" data-name="Ellipse 12" cx="8" cy="8" r="8" transform="translate(1052 452)" fill="#8671bf"/>
      <circle id="Ellipse_12-113" data-name="Ellipse 12" cx="8" cy="8" r="8" transform="translate(1088 452)" fill="#8671bf"/>
      <circle id="Ellipse_12-114" data-name="Ellipse 12" cx="8" cy="8" r="8" transform="translate(1124 452)" fill="#8671bf"/>
      <circle id="Ellipse_12-115" data-name="Ellipse 12" cx="8" cy="8" r="8" transform="translate(1160 452)" fill="#8671bf"/>
      <circle id="Ellipse_12-116" data-name="Ellipse 12" cx="8" cy="8" r="8" transform="translate(1196 452)" fill="#8671bf"/>
      <circle id="Ellipse_12-117" data-name="Ellipse 12" cx="8" cy="8" r="8" transform="translate(1232 452)" fill="#8671bf"/>
      <circle id="Ellipse_12-118" data-name="Ellipse 12" cx="8" cy="8" r="8" transform="translate(1268 452)" fill="#8671bf"/>
      <circle id="Ellipse_12-119" data-name="Ellipse 12" cx="8" cy="8" r="8" transform="translate(1304 452)" fill="#8671bf"/>
      <circle id="Ellipse_12-120" data-name="Ellipse 12" cx="8" cy="8" r="8" transform="translate(1340 452)" fill="#8671bf"/>
    </g>
    <g id="Group_66-3" data-name="Group 66" transform="translate(-296 -272)">
      <circle id="Ellipse_12-121" data-name="Ellipse 12" cx="8" cy="8" r="8" transform="translate(1016 272)" fill="#8671bf"/>
      <circle id="Ellipse_12-122" data-name="Ellipse 12" cx="8" cy="8" r="8" transform="translate(1052 272)" fill="#8671bf"/>
      <circle id="Ellipse_12-123" data-name="Ellipse 12" cx="8" cy="8" r="8" transform="translate(1088 272)" fill="#8671bf"/>
      <circle id="Ellipse_12-124" data-name="Ellipse 12" cx="8" cy="8" r="8" transform="translate(1124 272)" fill="#8671bf"/>
      <circle id="Ellipse_12-125" data-name="Ellipse 12" cx="8" cy="8" r="8" transform="translate(1160 272)" fill="#8671bf"/>
      <circle id="Ellipse_12-126" data-name="Ellipse 12" cx="8" cy="8" r="8" transform="translate(1196 272)" fill="#8671bf"/>
      <circle id="Ellipse_12-127" data-name="Ellipse 12" cx="8" cy="8" r="8" transform="translate(1232 272)" fill="#8671bf"/>
      <circle id="Ellipse_12-128" data-name="Ellipse 12" cx="8" cy="8" r="8" transform="translate(1268 272)" fill="#8671bf"/>
      <circle id="Ellipse_12-129" data-name="Ellipse 12" cx="8" cy="8" r="8" transform="translate(1304 272)" fill="#8671bf"/>
      <circle id="Ellipse_12-130" data-name="Ellipse 12" cx="8" cy="8" r="8" transform="translate(1340 272)" fill="#8671bf"/>
      <circle id="Ellipse_12-131" data-name="Ellipse 12" cx="8" cy="8" r="8" transform="translate(1016 308)" fill="#8671bf"/>
      <circle id="Ellipse_12-132" data-name="Ellipse 12" cx="8" cy="8" r="8" transform="translate(1052 308)" fill="#8671bf"/>
      <circle id="Ellipse_12-133" data-name="Ellipse 12" cx="8" cy="8" r="8" transform="translate(1088 308)" fill="#8671bf"/>
      <circle id="Ellipse_12-134" data-name="Ellipse 12" cx="8" cy="8" r="8" transform="translate(1124 308)" fill="#8671bf"/>
      <circle id="Ellipse_12-135" data-name="Ellipse 12" cx="8" cy="8" r="8" transform="translate(1160 308)" fill="#8671bf"/>
      <circle id="Ellipse_12-136" data-name="Ellipse 12" cx="8" cy="8" r="8" transform="translate(1196 308)" fill="#8671bf"/>
      <circle id="Ellipse_12-137" data-name="Ellipse 12" cx="8" cy="8" r="8" transform="translate(1232 308)" fill="#8671bf"/>
      <circle id="Ellipse_12-138" data-name="Ellipse 12" cx="8" cy="8" r="8" transform="translate(1268 308)" fill="#8671bf"/>
      <circle id="Ellipse_12-139" data-name="Ellipse 12" cx="8" cy="8" r="8" transform="translate(1304 308)" fill="#8671bf"/>
      <circle id="Ellipse_12-140" data-name="Ellipse 12" cx="8" cy="8" r="8" transform="translate(1340 308)" fill="#8671bf"/>
      <circle id="Ellipse_12-141" data-name="Ellipse 12" cx="8" cy="8" r="8" transform="translate(1016 344)" fill="#8671bf"/>
      <circle id="Ellipse_12-142" data-name="Ellipse 12" cx="8" cy="8" r="8" transform="translate(1052 344)" fill="#8671bf"/>
      <circle id="Ellipse_12-143" data-name="Ellipse 12" cx="8" cy="8" r="8" transform="translate(1088 344)" fill="#8671bf"/>
      <circle id="Ellipse_12-144" data-name="Ellipse 12" cx="8" cy="8" r="8" transform="translate(1124 344)" fill="#8671bf"/>
      <circle id="Ellipse_12-145" data-name="Ellipse 12" cx="8" cy="8" r="8" transform="translate(1160 344)" fill="#8671bf"/>
      <circle id="Ellipse_12-146" data-name="Ellipse 12" cx="8" cy="8" r="8" transform="translate(1196 344)" fill="#8671bf"/>
      <circle id="Ellipse_12-147" data-name="Ellipse 12" cx="8" cy="8" r="8" transform="translate(1232 344)" fill="#8671bf"/>
      <circle id="Ellipse_12-148" data-name="Ellipse 12" cx="8" cy="8" r="8" transform="translate(1268 344)" fill="#8671bf"/>
      <circle id="Ellipse_12-149" data-name="Ellipse 12" cx="8" cy="8" r="8" transform="translate(1304 344)" fill="#8671bf"/>
      <circle id="Ellipse_12-150" data-name="Ellipse 12" cx="8" cy="8" r="8" transform="translate(1340 344)" fill="#8671bf"/>
      <circle id="Ellipse_12-151" data-name="Ellipse 12" cx="8" cy="8" r="8" transform="translate(1016 380)" fill="#8671bf"/>
      <circle id="Ellipse_12-152" data-name="Ellipse 12" cx="8" cy="8" r="8" transform="translate(1052 380)" fill="#8671bf"/>
      <circle id="Ellipse_12-153" data-name="Ellipse 12" cx="8" cy="8" r="8" transform="translate(1088 380)" fill="#8671bf"/>
      <circle id="Ellipse_12-154" data-name="Ellipse 12" cx="8" cy="8" r="8" transform="translate(1124 380)" fill="#8671bf"/>
      <circle id="Ellipse_12-155" data-name="Ellipse 12" cx="8" cy="8" r="8" transform="translate(1160 380)" fill="#8671bf"/>
      <circle id="Ellipse_12-156" data-name="Ellipse 12" cx="8" cy="8" r="8" transform="translate(1196 380)" fill="#8671bf"/>
      <circle id="Ellipse_12-157" data-name="Ellipse 12" cx="8" cy="8" r="8" transform="translate(1232 380)" fill="#8671bf"/>
      <circle id="Ellipse_12-158" data-name="Ellipse 12" cx="8" cy="8" r="8" transform="translate(1268 380)" fill="#8671bf"/>
      <circle id="Ellipse_12-159" data-name="Ellipse 12" cx="8" cy="8" r="8" transform="translate(1304 380)" fill="#8671bf"/>
      <circle id="Ellipse_12-160" data-name="Ellipse 12" cx="8" cy="8" r="8" transform="translate(1340 380)" fill="#8671bf"/>
      <circle id="Ellipse_12-161" data-name="Ellipse 12" cx="8" cy="8" r="8" transform="translate(1016 416)" fill="#8671bf"/>
      <circle id="Ellipse_12-162" data-name="Ellipse 12" cx="8" cy="8" r="8" transform="translate(1052 416)" fill="#8671bf"/>
      <circle id="Ellipse_12-163" data-name="Ellipse 12" cx="8" cy="8" r="8" transform="translate(1088 416)" fill="#8671bf"/>
      <circle id="Ellipse_12-164" data-name="Ellipse 12" cx="8" cy="8" r="8" transform="translate(1124 416)" fill="#8671bf"/>
      <circle id="Ellipse_12-165" data-name="Ellipse 12" cx="8" cy="8" r="8" transform="translate(1160 416)" fill="#8671bf"/>
      <circle id="Ellipse_12-166" data-name="Ellipse 12" cx="8" cy="8" r="8" transform="translate(1196 416)" fill="#8671bf"/>
      <circle id="Ellipse_12-167" data-name="Ellipse 12" cx="8" cy="8" r="8" transform="translate(1232 416)" fill="#8671bf"/>
      <circle id="Ellipse_12-168" data-name="Ellipse 12" cx="8" cy="8" r="8" transform="translate(1268 416)" fill="#8671bf"/>
      <circle id="Ellipse_12-169" data-name="Ellipse 12" cx="8" cy="8" r="8" transform="translate(1304 416)" fill="#8671bf"/>
      <circle id="Ellipse_12-170" data-name="Ellipse 12" cx="8" cy="8" r="8" transform="translate(1340 416)" fill="#8671bf"/>
      <circle id="Ellipse_12-171" data-name="Ellipse 12" cx="8" cy="8" r="8" transform="translate(1016 452)" fill="#8671bf"/>
      <circle id="Ellipse_12-172" data-name="Ellipse 12" cx="8" cy="8" r="8" transform="translate(1052 452)" fill="#8671bf"/>
      <circle id="Ellipse_12-173" data-name="Ellipse 12" cx="8" cy="8" r="8" transform="translate(1088 452)" fill="#8671bf"/>
      <circle id="Ellipse_12-174" data-name="Ellipse 12" cx="8" cy="8" r="8" transform="translate(1124 452)" fill="#8671bf"/>
      <circle id="Ellipse_12-175" data-name="Ellipse 12" cx="8" cy="8" r="8" transform="translate(1160 452)" fill="#8671bf"/>
      <circle id="Ellipse_12-176" data-name="Ellipse 12" cx="8" cy="8" r="8" transform="translate(1196 452)" fill="#8671bf"/>
      <circle id="Ellipse_12-177" data-name="Ellipse 12" cx="8" cy="8" r="8" transform="translate(1232 452)" fill="#8671bf"/>
      <circle id="Ellipse_12-178" data-name="Ellipse 12" cx="8" cy="8" r="8" transform="translate(1268 452)" fill="#8671bf"/>
      <circle id="Ellipse_12-179" data-name="Ellipse 12" cx="8" cy="8" r="8" transform="translate(1304 452)" fill="#8671bf"/>
      <circle id="Ellipse_12-180" data-name="Ellipse 12" cx="8" cy="8" r="8" transform="translate(1340 452)" fill="#8671bf"/>
    </g>
    <g id="Group_66-4" data-name="Group 66" transform="translate(64 -272)">
      <circle id="Ellipse_12-181" data-name="Ellipse 12" cx="8" cy="8" r="8" transform="translate(1016 272)" fill="#8671bf"/>
      <circle id="Ellipse_12-182" data-name="Ellipse 12" cx="8" cy="8" r="8" transform="translate(1052 272)" fill="#8671bf"/>
      <circle id="Ellipse_12-183" data-name="Ellipse 12" cx="8" cy="8" r="8" transform="translate(1088 272)" fill="#8671bf"/>
      <circle id="Ellipse_12-184" data-name="Ellipse 12" cx="8" cy="8" r="8" transform="translate(1124 272)" fill="#8671bf"/>
      <circle id="Ellipse_12-185" data-name="Ellipse 12" cx="8" cy="8" r="8" transform="translate(1160 272)" fill="#8671bf"/>
      <circle id="Ellipse_12-186" data-name="Ellipse 12" cx="8" cy="8" r="8" transform="translate(1196 272)" fill="#8671bf"/>
      <circle id="Ellipse_12-187" data-name="Ellipse 12" cx="8" cy="8" r="8" transform="translate(1232 272)" fill="#8671bf"/>
      <circle id="Ellipse_12-188" data-name="Ellipse 12" cx="8" cy="8" r="8" transform="translate(1268 272)" fill="#8671bf"/>
      <circle id="Ellipse_12-189" data-name="Ellipse 12" cx="8" cy="8" r="8" transform="translate(1304 272)" fill="#8671bf"/>
      <circle id="Ellipse_12-190" data-name="Ellipse 12" cx="8" cy="8" r="8" transform="translate(1340 272)" fill="#8671bf"/>
      <circle id="Ellipse_12-191" data-name="Ellipse 12" cx="8" cy="8" r="8" transform="translate(1016 308)" fill="#8671bf"/>
      <circle id="Ellipse_12-192" data-name="Ellipse 12" cx="8" cy="8" r="8" transform="translate(1052 308)" fill="#8671bf"/>
      <circle id="Ellipse_12-193" data-name="Ellipse 12" cx="8" cy="8" r="8" transform="translate(1088 308)" fill="#8671bf"/>
      <circle id="Ellipse_12-194" data-name="Ellipse 12" cx="8" cy="8" r="8" transform="translate(1124 308)" fill="#8671bf"/>
      <circle id="Ellipse_12-195" data-name="Ellipse 12" cx="8" cy="8" r="8" transform="translate(1160 308)" fill="#8671bf"/>
      <circle id="Ellipse_12-196" data-name="Ellipse 12" cx="8" cy="8" r="8" transform="translate(1196 308)" fill="#8671bf"/>
      <circle id="Ellipse_12-197" data-name="Ellipse 12" cx="8" cy="8" r="8" transform="translate(1232 308)" fill="#8671bf"/>
      <circle id="Ellipse_12-198" data-name="Ellipse 12" cx="8" cy="8" r="8" transform="translate(1268 308)" fill="#8671bf"/>
      <circle id="Ellipse_12-199" data-name="Ellipse 12" cx="8" cy="8" r="8" transform="translate(1304 308)" fill="#8671bf"/>
      <circle id="Ellipse_12-200" data-name="Ellipse 12" cx="8" cy="8" r="8" transform="translate(1340 308)" fill="#8671bf"/>
      <circle id="Ellipse_12-201" data-name="Ellipse 12" cx="8" cy="8" r="8" transform="translate(1016 344)" fill="#8671bf"/>
      <circle id="Ellipse_12-202" data-name="Ellipse 12" cx="8" cy="8" r="8" transform="translate(1052 344)" fill="#8671bf"/>
      <circle id="Ellipse_12-203" data-name="Ellipse 12" cx="8" cy="8" r="8" transform="translate(1088 344)" fill="#8671bf"/>
      <circle id="Ellipse_12-204" data-name="Ellipse 12" cx="8" cy="8" r="8" transform="translate(1124 344)" fill="#8671bf"/>
      <circle id="Ellipse_12-205" data-name="Ellipse 12" cx="8" cy="8" r="8" transform="translate(1160 344)" fill="#8671bf"/>
      <circle id="Ellipse_12-206" data-name="Ellipse 12" cx="8" cy="8" r="8" transform="translate(1196 344)" fill="#8671bf"/>
      <circle id="Ellipse_12-207" data-name="Ellipse 12" cx="8" cy="8" r="8" transform="translate(1232 344)" fill="#8671bf"/>
      <circle id="Ellipse_12-208" data-name="Ellipse 12" cx="8" cy="8" r="8" transform="translate(1268 344)" fill="#8671bf"/>
      <circle id="Ellipse_12-209" data-name="Ellipse 12" cx="8" cy="8" r="8" transform="translate(1304 344)" fill="#8671bf"/>
      <circle id="Ellipse_12-210" data-name="Ellipse 12" cx="8" cy="8" r="8" transform="translate(1340 344)" fill="#8671bf"/>
      <circle id="Ellipse_12-211" data-name="Ellipse 12" cx="8" cy="8" r="8" transform="translate(1016 380)" fill="#8671bf"/>
      <circle id="Ellipse_12-212" data-name="Ellipse 12" cx="8" cy="8" r="8" transform="translate(1052 380)" fill="#8671bf"/>
      <circle id="Ellipse_12-213" data-name="Ellipse 12" cx="8" cy="8" r="8" transform="translate(1088 380)" fill="#8671bf"/>
      <circle id="Ellipse_12-214" data-name="Ellipse 12" cx="8" cy="8" r="8" transform="translate(1124 380)" fill="#8671bf"/>
      <circle id="Ellipse_12-215" data-name="Ellipse 12" cx="8" cy="8" r="8" transform="translate(1160 380)" fill="#8671bf"/>
      <circle id="Ellipse_12-216" data-name="Ellipse 12" cx="8" cy="8" r="8" transform="translate(1196 380)" fill="#8671bf"/>
      <circle id="Ellipse_12-217" data-name="Ellipse 12" cx="8" cy="8" r="8" transform="translate(1232 380)" fill="#8671bf"/>
      <circle id="Ellipse_12-218" data-name="Ellipse 12" cx="8" cy="8" r="8" transform="translate(1268 380)" fill="#8671bf"/>
      <circle id="Ellipse_12-219" data-name="Ellipse 12" cx="8" cy="8" r="8" transform="translate(1304 380)" fill="#8671bf"/>
      <circle id="Ellipse_12-220" data-name="Ellipse 12" cx="8" cy="8" r="8" transform="translate(1340 380)" fill="#8671bf"/>
      <circle id="Ellipse_12-221" data-name="Ellipse 12" cx="8" cy="8" r="8" transform="translate(1016 416)" fill="#8671bf"/>
      <circle id="Ellipse_12-222" data-name="Ellipse 12" cx="8" cy="8" r="8" transform="translate(1052 416)" fill="#8671bf"/>
      <circle id="Ellipse_12-223" data-name="Ellipse 12" cx="8" cy="8" r="8" transform="translate(1088 416)" fill="#8671bf"/>
      <circle id="Ellipse_12-224" data-name="Ellipse 12" cx="8" cy="8" r="8" transform="translate(1124 416)" fill="#8671bf"/>
      <circle id="Ellipse_12-225" data-name="Ellipse 12" cx="8" cy="8" r="8" transform="translate(1160 416)" fill="#8671bf"/>
      <circle id="Ellipse_12-226" data-name="Ellipse 12" cx="8" cy="8" r="8" transform="translate(1196 416)" fill="#8671bf"/>
      <circle id="Ellipse_12-227" data-name="Ellipse 12" cx="8" cy="8" r="8" transform="translate(1232 416)" fill="#8671bf"/>
      <circle id="Ellipse_12-228" data-name="Ellipse 12" cx="8" cy="8" r="8" transform="translate(1268 416)" fill="#8671bf"/>
      <circle id="Ellipse_12-229" data-name="Ellipse 12" cx="8" cy="8" r="8" transform="translate(1304 416)" fill="#8671bf"/>
      <circle id="Ellipse_12-230" data-name="Ellipse 12" cx="8" cy="8" r="8" transform="translate(1340 416)" fill="#8671bf"/>
      <circle id="Ellipse_12-231" data-name="Ellipse 12" cx="8" cy="8" r="8" transform="translate(1016 452)" fill="#8671bf"/>
      <circle id="Ellipse_12-232" data-name="Ellipse 12" cx="8" cy="8" r="8" transform="translate(1052 452)" fill="#8671bf"/>
      <circle id="Ellipse_12-233" data-name="Ellipse 12" cx="8" cy="8" r="8" transform="translate(1088 452)" fill="#8671bf"/>
      <circle id="Ellipse_12-234" data-name="Ellipse 12" cx="8" cy="8" r="8" transform="translate(1124 452)" fill="#8671bf"/>
      <circle id="Ellipse_12-235" data-name="Ellipse 12" cx="8" cy="8" r="8" transform="translate(1160 452)" fill="#8671bf"/>
      <circle id="Ellipse_12-236" data-name="Ellipse 12" cx="8" cy="8" r="8" transform="translate(1196 452)" fill="#8671bf"/>
      <circle id="Ellipse_12-237" data-name="Ellipse 12" cx="8" cy="8" r="8" transform="translate(1232 452)" fill="#8671bf"/>
      <circle id="Ellipse_12-238" data-name="Ellipse 12" cx="8" cy="8" r="8" transform="translate(1268 452)" fill="#8671bf"/>
      <circle id="Ellipse_12-239" data-name="Ellipse 12" cx="8" cy="8" r="8" transform="translate(1304 452)" fill="#8671bf"/>
      <circle id="Ellipse_12-240" data-name="Ellipse 12" cx="8" cy="8" r="8" transform="translate(1340 452)" fill="#8671bf"/>
    </g>
    <g id="Group_66-5" data-name="Group 66" transform="translate(424 -272)">
      <circle id="Ellipse_12-241" data-name="Ellipse 12" cx="8" cy="8" r="8" transform="translate(1016 272)" fill="#8671bf"/>
      <circle id="Ellipse_12-242" data-name="Ellipse 12" cx="8" cy="8" r="8" transform="translate(1052 272)" fill="#8671bf"/>
      <circle id="Ellipse_12-243" data-name="Ellipse 12" cx="8" cy="8" r="8" transform="translate(1088 272)" fill="#8671bf"/>
      <circle id="Ellipse_12-244" data-name="Ellipse 12" cx="8" cy="8" r="8" transform="translate(1124 272)" fill="#8671bf"/>
      <circle id="Ellipse_12-245" data-name="Ellipse 12" cx="8" cy="8" r="8" transform="translate(1160 272)" fill="#8671bf"/>
      <circle id="Ellipse_12-246" data-name="Ellipse 12" cx="8" cy="8" r="8" transform="translate(1196 272)" fill="#8671bf"/>
      <circle id="Ellipse_12-247" data-name="Ellipse 12" cx="8" cy="8" r="8" transform="translate(1232 272)" fill="#8671bf"/>
      <circle id="Ellipse_12-248" data-name="Ellipse 12" cx="8" cy="8" r="8" transform="translate(1268 272)" fill="#8671bf"/>
      <circle id="Ellipse_12-249" data-name="Ellipse 12" cx="8" cy="8" r="8" transform="translate(1304 272)" fill="#8671bf"/>
      <circle id="Ellipse_12-250" data-name="Ellipse 12" cx="8" cy="8" r="8" transform="translate(1340 272)" fill="#8671bf"/>
      <circle id="Ellipse_12-251" data-name="Ellipse 12" cx="8" cy="8" r="8" transform="translate(1016 308)" fill="#8671bf"/>
      <circle id="Ellipse_12-252" data-name="Ellipse 12" cx="8" cy="8" r="8" transform="translate(1052 308)" fill="#8671bf"/>
      <circle id="Ellipse_12-253" data-name="Ellipse 12" cx="8" cy="8" r="8" transform="translate(1088 308)" fill="#8671bf"/>
      <circle id="Ellipse_12-254" data-name="Ellipse 12" cx="8" cy="8" r="8" transform="translate(1124 308)" fill="#8671bf"/>
      <circle id="Ellipse_12-255" data-name="Ellipse 12" cx="8" cy="8" r="8" transform="translate(1160 308)" fill="#8671bf"/>
      <circle id="Ellipse_12-256" data-name="Ellipse 12" cx="8" cy="8" r="8" transform="translate(1196 308)" fill="#8671bf"/>
      <circle id="Ellipse_12-257" data-name="Ellipse 12" cx="8" cy="8" r="8" transform="translate(1232 308)" fill="#8671bf"/>
      <circle id="Ellipse_12-258" data-name="Ellipse 12" cx="8" cy="8" r="8" transform="translate(1268 308)" fill="#8671bf"/>
      <circle id="Ellipse_12-259" data-name="Ellipse 12" cx="8" cy="8" r="8" transform="translate(1304 308)" fill="#8671bf"/>
      <circle id="Ellipse_12-260" data-name="Ellipse 12" cx="8" cy="8" r="8" transform="translate(1340 308)" fill="#8671bf"/>
      <circle id="Ellipse_12-261" data-name="Ellipse 12" cx="8" cy="8" r="8" transform="translate(1016 344)" fill="#8671bf"/>
      <circle id="Ellipse_12-262" data-name="Ellipse 12" cx="8" cy="8" r="8" transform="translate(1052 344)" fill="#8671bf"/>
      <circle id="Ellipse_12-263" data-name="Ellipse 12" cx="8" cy="8" r="8" transform="translate(1088 344)" fill="#8671bf"/>
      <circle id="Ellipse_12-264" data-name="Ellipse 12" cx="8" cy="8" r="8" transform="translate(1124 344)" fill="#8671bf"/>
      <circle id="Ellipse_12-265" data-name="Ellipse 12" cx="8" cy="8" r="8" transform="translate(1160 344)" fill="#8671bf"/>
      <circle id="Ellipse_12-266" data-name="Ellipse 12" cx="8" cy="8" r="8" transform="translate(1196 344)" fill="#8671bf"/>
      <circle id="Ellipse_12-267" data-name="Ellipse 12" cx="8" cy="8" r="8" transform="translate(1232 344)" fill="#8671bf"/>
      <circle id="Ellipse_12-268" data-name="Ellipse 12" cx="8" cy="8" r="8" transform="translate(1268 344)" fill="#8671bf"/>
      <circle id="Ellipse_12-269" data-name="Ellipse 12" cx="8" cy="8" r="8" transform="translate(1304 344)" fill="#8671bf"/>
      <circle id="Ellipse_12-270" data-name="Ellipse 12" cx="8" cy="8" r="8" transform="translate(1340 344)" fill="#8671bf"/>
      <circle id="Ellipse_12-271" data-name="Ellipse 12" cx="8" cy="8" r="8" transform="translate(1016 380)" fill="#8671bf"/>
      <circle id="Ellipse_12-272" data-name="Ellipse 12" cx="8" cy="8" r="8" transform="translate(1052 380)" fill="#8671bf"/>
      <circle id="Ellipse_12-273" data-name="Ellipse 12" cx="8" cy="8" r="8" transform="translate(1088 380)" fill="#8671bf"/>
      <circle id="Ellipse_12-274" data-name="Ellipse 12" cx="8" cy="8" r="8" transform="translate(1124 380)" fill="#8671bf"/>
      <circle id="Ellipse_12-275" data-name="Ellipse 12" cx="8" cy="8" r="8" transform="translate(1160 380)" fill="#8671bf"/>
      <circle id="Ellipse_12-276" data-name="Ellipse 12" cx="8" cy="8" r="8" transform="translate(1196 380)" fill="#8671bf"/>
      <circle id="Ellipse_12-277" data-name="Ellipse 12" cx="8" cy="8" r="8" transform="translate(1232 380)" fill="#8671bf"/>
      <circle id="Ellipse_12-278" data-name="Ellipse 12" cx="8" cy="8" r="8" transform="translate(1268 380)" fill="#8671bf"/>
      <circle id="Ellipse_12-279" data-name="Ellipse 12" cx="8" cy="8" r="8" transform="translate(1304 380)" fill="#8671bf"/>
      <circle id="Ellipse_12-280" data-name="Ellipse 12" cx="8" cy="8" r="8" transform="translate(1340 380)" fill="#8671bf"/>
      <circle id="Ellipse_12-281" data-name="Ellipse 12" cx="8" cy="8" r="8" transform="translate(1016 416)" fill="#8671bf"/>
      <circle id="Ellipse_12-282" data-name="Ellipse 12" cx="8" cy="8" r="8" transform="translate(1052 416)" fill="#8671bf"/>
      <circle id="Ellipse_12-283" data-name="Ellipse 12" cx="8" cy="8" r="8" transform="translate(1088 416)" fill="#8671bf"/>
      <circle id="Ellipse_12-284" data-name="Ellipse 12" cx="8" cy="8" r="8" transform="translate(1124 416)" fill="#8671bf"/>
      <circle id="Ellipse_12-285" data-name="Ellipse 12" cx="8" cy="8" r="8" transform="translate(1160 416)" fill="#8671bf"/>
      <circle id="Ellipse_12-286" data-name="Ellipse 12" cx="8" cy="8" r="8" transform="translate(1196 416)" fill="#8671bf"/>
      <circle id="Ellipse_12-287" data-name="Ellipse 12" cx="8" cy="8" r="8" transform="translate(1232 416)" fill="#8671bf"/>
      <circle id="Ellipse_12-288" data-name="Ellipse 12" cx="8" cy="8" r="8" transform="translate(1268 416)" fill="#8671bf"/>
      <circle id="Ellipse_12-289" data-name="Ellipse 12" cx="8" cy="8" r="8" transform="translate(1304 416)" fill="#8671bf"/>
      <circle id="Ellipse_12-290" data-name="Ellipse 12" cx="8" cy="8" r="8" transform="translate(1340 416)" fill="#8671bf"/>
      <circle id="Ellipse_12-291" data-name="Ellipse 12" cx="8" cy="8" r="8" transform="translate(1016 452)" fill="#8671bf"/>
      <circle id="Ellipse_12-292" data-name="Ellipse 12" cx="8" cy="8" r="8" transform="translate(1052 452)" fill="#8671bf"/>
      <circle id="Ellipse_12-293" data-name="Ellipse 12" cx="8" cy="8" r="8" transform="translate(1088 452)" fill="#8671bf"/>
      <circle id="Ellipse_12-294" data-name="Ellipse 12" cx="8" cy="8" r="8" transform="translate(1124 452)" fill="#8671bf"/>
      <circle id="Ellipse_12-295" data-name="Ellipse 12" cx="8" cy="8" r="8" transform="translate(1160 452)" fill="#8671bf"/>
      <circle id="Ellipse_12-296" data-name="Ellipse 12" cx="8" cy="8" r="8" transform="translate(1196 452)" fill="#8671bf"/>
      <circle id="Ellipse_12-297" data-name="Ellipse 12" cx="8" cy="8" r="8" transform="translate(1232 452)" fill="#8671bf"/>
      <circle id="Ellipse_12-298" data-name="Ellipse 12" cx="8" cy="8" r="8" transform="translate(1268 452)" fill="#8671bf"/>
      <circle id="Ellipse_12-299" data-name="Ellipse 12" cx="8" cy="8" r="8" transform="translate(1304 452)" fill="#8671bf"/>
      <circle id="Ellipse_12-300" data-name="Ellipse 12" cx="8" cy="8" r="8" transform="translate(1340 452)" fill="#8671bf"/>
    </g>
    <g id="Group_66-6" data-name="Group 66" transform="translate(784 -272)">
      <circle id="Ellipse_12-301" data-name="Ellipse 12" cx="8" cy="8" r="8" transform="translate(1016 272)" fill="#8671bf"/>
      <circle id="Ellipse_12-302" data-name="Ellipse 12" cx="8" cy="8" r="8" transform="translate(1052 272)" fill="#8671bf"/>
      <circle id="Ellipse_12-303" data-name="Ellipse 12" cx="8" cy="8" r="8" transform="translate(1088 272)" fill="#8671bf"/>
      <circle id="Ellipse_12-304" data-name="Ellipse 12" cx="8" cy="8" r="8" transform="translate(1124 272)" fill="#8671bf"/>
      <circle id="Ellipse_12-305" data-name="Ellipse 12" cx="8" cy="8" r="8" transform="translate(1160 272)" fill="#8671bf"/>
      <circle id="Ellipse_12-306" data-name="Ellipse 12" cx="8" cy="8" r="8" transform="translate(1196 272)" fill="#8671bf"/>
      <circle id="Ellipse_12-307" data-name="Ellipse 12" cx="8" cy="8" r="8" transform="translate(1232 272)" fill="#8671bf"/>
      <circle id="Ellipse_12-308" data-name="Ellipse 12" cx="8" cy="8" r="8" transform="translate(1268 272)" fill="#8671bf"/>
      <circle id="Ellipse_12-309" data-name="Ellipse 12" cx="8" cy="8" r="8" transform="translate(1304 272)" fill="#8671bf"/>
      <circle id="Ellipse_12-310" data-name="Ellipse 12" cx="8" cy="8" r="8" transform="translate(1340 272)" fill="#8671bf"/>
      <circle id="Ellipse_12-311" data-name="Ellipse 12" cx="8" cy="8" r="8" transform="translate(1016 308)" fill="#8671bf"/>
      <circle id="Ellipse_12-312" data-name="Ellipse 12" cx="8" cy="8" r="8" transform="translate(1052 308)" fill="#8671bf"/>
      <circle id="Ellipse_12-313" data-name="Ellipse 12" cx="8" cy="8" r="8" transform="translate(1088 308)" fill="#8671bf"/>
      <circle id="Ellipse_12-314" data-name="Ellipse 12" cx="8" cy="8" r="8" transform="translate(1124 308)" fill="#8671bf"/>
      <circle id="Ellipse_12-315" data-name="Ellipse 12" cx="8" cy="8" r="8" transform="translate(1160 308)" fill="#8671bf"/>
      <circle id="Ellipse_12-316" data-name="Ellipse 12" cx="8" cy="8" r="8" transform="translate(1196 308)" fill="#8671bf"/>
      <circle id="Ellipse_12-317" data-name="Ellipse 12" cx="8" cy="8" r="8" transform="translate(1232 308)" fill="#8671bf"/>
      <circle id="Ellipse_12-318" data-name="Ellipse 12" cx="8" cy="8" r="8" transform="translate(1268 308)" fill="#8671bf"/>
      <circle id="Ellipse_12-319" data-name="Ellipse 12" cx="8" cy="8" r="8" transform="translate(1304 308)" fill="#8671bf"/>
      <circle id="Ellipse_12-320" data-name="Ellipse 12" cx="8" cy="8" r="8" transform="translate(1340 308)" fill="#8671bf"/>
      <circle id="Ellipse_12-321" data-name="Ellipse 12" cx="8" cy="8" r="8" transform="translate(1016 344)" fill="#8671bf"/>
      <circle id="Ellipse_12-322" data-name="Ellipse 12" cx="8" cy="8" r="8" transform="translate(1052 344)" fill="#8671bf"/>
      <circle id="Ellipse_12-323" data-name="Ellipse 12" cx="8" cy="8" r="8" transform="translate(1088 344)" fill="#8671bf"/>
      <circle id="Ellipse_12-324" data-name="Ellipse 12" cx="8" cy="8" r="8" transform="translate(1124 344)" fill="#8671bf"/>
      <circle id="Ellipse_12-325" data-name="Ellipse 12" cx="8" cy="8" r="8" transform="translate(1160 344)" fill="#8671bf"/>
      <circle id="Ellipse_12-326" data-name="Ellipse 12" cx="8" cy="8" r="8" transform="translate(1196 344)" fill="#8671bf"/>
      <circle id="Ellipse_12-327" data-name="Ellipse 12" cx="8" cy="8" r="8" transform="translate(1232 344)" fill="#8671bf"/>
      <circle id="Ellipse_12-328" data-name="Ellipse 12" cx="8" cy="8" r="8" transform="translate(1268 344)" fill="#8671bf"/>
      <circle id="Ellipse_12-329" data-name="Ellipse 12" cx="8" cy="8" r="8" transform="translate(1304 344)" fill="#8671bf"/>
      <circle id="Ellipse_12-330" data-name="Ellipse 12" cx="8" cy="8" r="8" transform="translate(1340 344)" fill="#8671bf"/>
      <circle id="Ellipse_12-331" data-name="Ellipse 12" cx="8" cy="8" r="8" transform="translate(1016 380)" fill="#8671bf"/>
      <circle id="Ellipse_12-332" data-name="Ellipse 12" cx="8" cy="8" r="8" transform="translate(1052 380)" fill="#8671bf"/>
      <circle id="Ellipse_12-333" data-name="Ellipse 12" cx="8" cy="8" r="8" transform="translate(1088 380)" fill="#8671bf"/>
      <circle id="Ellipse_12-334" data-name="Ellipse 12" cx="8" cy="8" r="8" transform="translate(1124 380)" fill="#8671bf"/>
      <circle id="Ellipse_12-335" data-name="Ellipse 12" cx="8" cy="8" r="8" transform="translate(1160 380)" fill="#8671bf"/>
      <circle id="Ellipse_12-336" data-name="Ellipse 12" cx="8" cy="8" r="8" transform="translate(1196 380)" fill="#8671bf"/>
      <circle id="Ellipse_12-337" data-name="Ellipse 12" cx="8" cy="8" r="8" transform="translate(1232 380)" fill="#8671bf"/>
      <circle id="Ellipse_12-338" data-name="Ellipse 12" cx="8" cy="8" r="8" transform="translate(1268 380)" fill="#8671bf"/>
      <circle id="Ellipse_12-339" data-name="Ellipse 12" cx="8" cy="8" r="8" transform="translate(1304 380)" fill="#8671bf"/>
      <circle id="Ellipse_12-340" data-name="Ellipse 12" cx="8" cy="8" r="8" transform="translate(1340 380)" fill="#8671bf"/>
      <circle id="Ellipse_12-341" data-name="Ellipse 12" cx="8" cy="8" r="8" transform="translate(1016 416)" fill="#8671bf"/>
      <circle id="Ellipse_12-342" data-name="Ellipse 12" cx="8" cy="8" r="8" transform="translate(1052 416)" fill="#8671bf"/>
      <circle id="Ellipse_12-343" data-name="Ellipse 12" cx="8" cy="8" r="8" transform="translate(1088 416)" fill="#8671bf"/>
      <circle id="Ellipse_12-344" data-name="Ellipse 12" cx="8" cy="8" r="8" transform="translate(1124 416)" fill="#8671bf"/>
      <circle id="Ellipse_12-345" data-name="Ellipse 12" cx="8" cy="8" r="8" transform="translate(1160 416)" fill="#8671bf"/>
      <circle id="Ellipse_12-346" data-name="Ellipse 12" cx="8" cy="8" r="8" transform="translate(1196 416)" fill="#8671bf"/>
      <circle id="Ellipse_12-347" data-name="Ellipse 12" cx="8" cy="8" r="8" transform="translate(1232 416)" fill="#8671bf"/>
      <circle id="Ellipse_12-348" data-name="Ellipse 12" cx="8" cy="8" r="8" transform="translate(1268 416)" fill="#8671bf"/>
      <circle id="Ellipse_12-349" data-name="Ellipse 12" cx="8" cy="8" r="8" transform="translate(1304 416)" fill="#8671bf"/>
      <circle id="Ellipse_12-350" data-name="Ellipse 12" cx="8" cy="8" r="8" transform="translate(1340 416)" fill="#8671bf"/>
      <circle id="Ellipse_12-351" data-name="Ellipse 12" cx="8" cy="8" r="8" transform="translate(1016 452)" fill="#8671bf"/>
      <circle id="Ellipse_12-352" data-name="Ellipse 12" cx="8" cy="8" r="8" transform="translate(1052 452)" fill="#8671bf"/>
      <circle id="Ellipse_12-353" data-name="Ellipse 12" cx="8" cy="8" r="8" transform="translate(1088 452)" fill="#8671bf"/>
      <circle id="Ellipse_12-354" data-name="Ellipse 12" cx="8" cy="8" r="8" transform="translate(1124 452)" fill="#8671bf"/>
      <circle id="Ellipse_12-355" data-name="Ellipse 12" cx="8" cy="8" r="8" transform="translate(1160 452)" fill="#8671bf"/>
      <circle id="Ellipse_12-356" data-name="Ellipse 12" cx="8" cy="8" r="8" transform="translate(1196 452)" fill="#8671bf"/>
      <circle id="Ellipse_12-357" data-name="Ellipse 12" cx="8" cy="8" r="8" transform="translate(1232 452)" fill="#8671bf"/>
      <circle id="Ellipse_12-358" data-name="Ellipse 12" cx="8" cy="8" r="8" transform="translate(1268 452)" fill="#8671bf"/>
      <circle id="Ellipse_12-359" data-name="Ellipse 12" cx="8" cy="8" r="8" transform="translate(1304 452)" fill="#8671bf"/>
      <circle id="Ellipse_12-360" data-name="Ellipse 12" cx="8" cy="8" r="8" transform="translate(1340 452)" fill="#8671bf"/>
    </g>
  </g>
</svg>
